<svg width="213" height="55" viewBox="0 0 213 55" fill="none" xmlns="http://www.w3.org/2000/svg">
<rect width="213" height="55" fill="#E5E5E5"/>
<path d="M12 22C10.8808 24.7816 11 24.3288 11 27.5C11 41.031 22.1929 52 36 52C41.1787 52 44.5095 51.6427 48.5 49M17.1892 12C21.6469 5.27912 27.211 3 36 3C49.8071 3 61 13.969 61 27.5C61 34.155 59.8945 38.5847 55.5 43" stroke="white" stroke-width="5"/>
<path d="M28.22 33.78L27.4828 34.4557L27.5122 34.4878L27.5443 34.5172L28.22 33.78ZM28.22 18.6L27.5443 17.8628L27.5283 17.8775L27.5129 17.8929L28.22 18.6ZM29.48 18.78L30.3733 18.3305L30.3651 18.3142L30.3562 18.2981L29.48 18.78ZM35.88 31.5L34.9867 31.9495L35.8885 33.7417L36.7767 31.9427L35.88 31.5ZM42.16 18.78L41.3025 18.2655L41.2814 18.3006L41.2633 18.3373L42.16 18.78ZM43.4 18.6L44.1071 17.8929L44.1071 17.8929L43.4 18.6ZM43.4 33.78L44.1071 34.4871L44.1225 34.4717L44.1372 34.4557L43.4 33.78ZM42.28 33.78L41.5428 34.4557L41.5722 34.4878L41.6043 34.5172L42.28 33.78ZM42.06 21.9H43.06L41.1618 21.4604L42.06 21.9ZM36.5 33.26L37.3654 33.761L37.3829 33.7309L37.3982 33.6996L36.5 33.26ZM35.1 33.16L36.0091 32.7433L36.002 32.7279L35.9944 32.7128L35.1 33.16ZM29.56 22.08L30.4544 21.6328L28.56 22.08H29.56ZM29.32 33.78L30.0271 34.4871L30.0271 34.4871L29.32 33.78ZM28.78 33C28.7904 33 28.8152 33.0023 28.8457 33.0142C28.8758 33.0261 28.8926 33.04 28.8957 33.0428L27.5443 34.5172C27.8851 34.8296 28.3117 35 28.78 35V33ZM28.9572 33.1043C28.96 33.1074 28.9739 33.1242 28.9858 33.1543C28.9977 33.1848 29 33.2096 29 33.22H27C27 33.6883 27.1704 34.1149 27.4828 34.4557L28.9572 33.1043ZM29 33.22V19.16H27V33.22H29ZM29 19.16C29 19.1556 29.0004 19.1783 28.9858 19.2157C28.9704 19.2547 28.9476 19.2866 28.9271 19.3071L27.5129 17.8929C27.1604 18.2454 27 18.6952 27 19.16H29ZM28.8957 19.3372C28.8926 19.34 28.8758 19.3539 28.8457 19.3658C28.8152 19.3777 28.7904 19.38 28.78 19.38V17.38C28.3117 17.38 27.8851 17.5504 27.5443 17.8628L28.8957 19.3372ZM28.78 19.38C28.7992 19.38 28.7598 19.383 28.6989 19.3482C28.6353 19.3119 28.6071 19.268 28.6038 19.2619L30.3562 18.2981C30.2062 18.0253 29.988 17.7814 29.6911 17.6118C29.3969 17.4436 29.0808 17.38 28.78 17.38V19.38ZM28.5867 19.2295L34.9867 31.9495L36.7733 31.0505L30.3733 18.3305L28.5867 19.2295ZM36.7767 31.9427L43.0567 19.2227L41.2633 18.3373L34.9833 31.0573L36.7767 31.9427ZM43.0175 19.2945C43.0233 19.2848 43.0052 19.3174 42.9511 19.3482C42.8964 19.3795 42.8558 19.38 42.86 19.38V17.38C42.196 17.38 41.6401 17.7028 41.3025 18.2655L43.0175 19.2945ZM42.86 19.38C42.85 19.38 42.8187 19.3778 42.7777 19.3611C42.7361 19.3442 42.7074 19.3216 42.6929 19.3071L44.1071 17.8929C43.767 17.5528 43.3301 17.38 42.86 17.38V19.38ZM42.6929 19.3071C42.6724 19.2866 42.6496 19.2547 42.6342 19.2157C42.6196 19.1783 42.62 19.1556 42.62 19.16H44.62C44.62 18.6952 44.4596 18.2454 44.1071 17.8929L42.6929 19.3071ZM42.62 19.16V33.22H44.62V19.16H42.62ZM42.62 33.22C42.62 33.2096 42.6223 33.1848 42.6342 33.1543C42.6461 33.1242 42.66 33.1074 42.6628 33.1043L44.1372 34.4557C44.4496 34.1149 44.62 33.6883 44.62 33.22H42.62ZM42.6929 33.0729C42.7074 33.0584 42.7361 33.0358 42.7777 33.0189C42.8187 33.0022 42.85 33 42.86 33V35C43.3301 35 43.767 34.8272 44.1071 34.4871L42.6929 33.0729ZM42.86 33C42.8562 33 42.8726 32.9997 42.8997 33.01C42.9274 33.0205 42.9469 33.0348 42.9557 33.0428L41.6043 34.5172C41.9575 34.8409 42.3953 35 42.86 35V33ZM43.0172 33.1043C43.02 33.1074 43.0339 33.1242 43.0458 33.1543C43.0577 33.1848 43.06 33.2096 43.06 33.22H41.06C41.06 33.6883 41.2304 34.1149 41.5428 34.4557L43.0172 33.1043ZM43.06 33.22V21.9H41.06V33.22H43.06ZM41.1618 21.4604L35.6018 32.8204L37.3982 33.6996L42.9582 22.3396L41.1618 21.4604ZM35.6346 32.759C35.6396 32.7502 35.6692 32.7072 35.7322 32.6721C35.7929 32.6382 35.8336 32.64 35.82 32.64V34.64C36.4626 34.64 37.0298 34.3408 37.3654 33.761L35.6346 32.759ZM35.82 32.64C35.8168 32.64 35.8307 32.6397 35.8563 32.6468C35.883 32.6543 35.9141 32.6676 35.9447 32.6879C36.0099 32.7314 36.0222 32.7719 36.0091 32.7433L34.1909 33.5767C34.3245 33.8681 34.5301 34.1486 34.8353 34.3521C35.144 34.5578 35.4875 34.64 35.82 34.64V32.64ZM35.9944 32.7128L30.4544 21.6328L28.6656 22.5272L34.2056 33.6072L35.9944 32.7128ZM28.56 22.08V33.22H30.56V22.08H28.56ZM28.56 33.22C28.56 33.1982 28.5648 33.1635 28.5809 33.1261C28.5964 33.0899 28.6132 33.0726 28.6129 33.0729L30.0271 34.4871C30.362 34.1522 30.56 33.7159 30.56 33.22H28.56ZM28.6129 33.0729C28.6274 33.0584 28.6561 33.0358 28.6977 33.0189C28.7387 33.0022 28.77 33 28.78 33V35C29.2501 35 29.687 34.8272 30.0271 34.4871L28.6129 33.0729Z" fill="white"/>
<path d="M34.555 21.945L34.9086 21.5914L34.9086 21.5914L34.555 21.945ZM34.555 18.15L34.9086 18.5036L34.9086 18.5036L34.555 18.15ZM36.38 18.24L36.1909 18.7029L36.1988 18.706L36.38 18.24ZM37 18.645L36.6431 18.9952L36.6464 18.9986L37 18.645ZM37.4 19.26L36.9348 19.4434L36.9371 19.4491L37.4 19.26ZM37.4 20.835L36.9362 20.6482L36.9349 20.6516L37.4 20.835ZM37 21.455L37.3536 21.8086L37.3569 21.8052L37 21.455ZM36.38 21.86L36.5634 22.3251L36.5668 22.3238L36.38 21.86ZM34.89 21.65H34.39V22.15H34.89V21.65ZM36.405 21.445L36.6577 21.8764L36.6596 21.8753L36.405 21.445ZM36.96 20.875L37.3971 21.1178L37.3985 21.1153L36.96 20.875ZM36.96 19.22L36.5215 19.4603L36.5229 19.4628L36.96 19.22ZM36.405 18.65L36.1523 19.0814L36.155 19.083L36.405 18.65ZM34.89 18.445V17.945H34.39V18.445H34.89ZM34.695 21.5C34.7211 21.5 34.7583 21.5044 34.8003 21.5209C34.8432 21.5377 34.88 21.5629 34.9086 21.5914L34.2014 22.2986C34.341 22.4382 34.5193 22.5 34.695 22.5V21.5ZM34.9086 21.5914C34.9371 21.62 34.9623 21.6568 34.9791 21.6997C34.9956 21.7417 35 21.7789 35 21.805H34C34 21.9807 34.0618 22.159 34.2014 22.2986L34.9086 21.5914ZM35 21.805V18.29H34V21.805H35ZM35 18.29C35 18.3161 34.9956 18.3533 34.9791 18.3953C34.9623 18.4382 34.9371 18.475 34.9086 18.5036L34.2014 17.7964C34.0618 17.936 34 18.1143 34 18.29H35ZM34.9086 18.5036C34.88 18.5321 34.8432 18.5573 34.8003 18.5741C34.7583 18.5906 34.7211 18.595 34.695 18.595V17.595C34.5193 17.595 34.341 17.6568 34.2014 17.7964L34.9086 18.5036ZM34.695 18.595H35.595V17.595H34.695V18.595ZM35.595 18.595C35.8247 18.595 36.0212 18.6335 36.1909 18.7029L36.5691 17.7771C36.2655 17.6531 35.9387 17.595 35.595 17.595V18.595ZM36.1988 18.706C36.3754 18.7747 36.5215 18.8712 36.6431 18.9952L37.3569 18.2948C37.1319 18.0655 36.8646 17.892 36.5612 17.774L36.1988 18.706ZM36.6464 18.9986C36.7695 19.1216 36.8657 19.2681 36.9349 19.4434L37.8651 19.0766C37.7476 18.7786 37.5772 18.5151 37.3536 18.2914L36.6464 18.9986ZM36.9371 19.4491C37.0065 19.6188 37.045 19.8153 37.045 20.045H38.045C38.045 19.7013 37.9869 19.3745 37.8629 19.0709L36.9371 19.4491ZM37.045 20.045C37.045 20.2746 37.0065 20.4737 36.9362 20.6482L37.8638 21.0218C37.9868 20.7163 38.045 20.3888 38.045 20.045H37.045ZM36.9349 20.6516C36.8654 20.8277 36.7682 20.9773 36.6431 21.1048L37.3569 21.8052C37.5784 21.5794 37.748 21.3156 37.8651 21.0184L36.9349 20.6516ZM36.6464 21.1014C36.5233 21.2246 36.3743 21.3233 36.1932 21.3962L36.5668 22.3238C36.8657 22.2034 37.13 22.0321 37.3536 21.8086L36.6464 21.1014ZM36.1966 21.3949C36.0253 21.4624 35.8268 21.5 35.595 21.5V22.5C35.9365 22.5 36.2614 22.4442 36.5634 22.3251L36.1966 21.3949ZM35.595 21.5H34.695V22.5H35.595V21.5ZM34.89 22.15H35.595V21.15H34.89V22.15ZM35.595 22.15C35.9784 22.15 36.3379 22.0638 36.6577 21.8764L36.1523 21.0136C36.0055 21.0996 35.825 21.15 35.595 21.15V22.15ZM36.6596 21.8753C36.9725 21.6902 37.2206 21.4355 37.3971 21.1178L36.5229 20.6322C36.4328 20.7945 36.3108 20.9198 36.1504 21.0147L36.6596 21.8753ZM37.3985 21.1153C37.5767 20.79 37.66 20.429 37.66 20.045H36.66C36.66 20.281 36.6099 20.4734 36.5215 20.6347L37.3985 21.1153ZM37.66 20.045C37.66 19.6612 37.5768 19.3006 37.3971 18.9772L36.5229 19.4628C36.6099 19.6194 36.66 19.8088 36.66 20.045H37.66ZM37.3985 18.9797C37.2219 18.6574 36.9722 18.4002 36.655 18.217L36.155 19.083C36.3111 19.1731 36.4315 19.2959 36.5215 19.4603L37.3985 18.9797ZM36.6577 18.2186C36.3379 18.0312 35.9784 17.945 35.595 17.945V18.945C35.825 18.945 36.0055 18.9954 36.1523 19.0814L36.6577 18.2186ZM35.595 17.945H34.89V18.945H35.595V17.945ZM34.39 18.445V21.65H35.39V18.445H34.39Z" fill="white"/>
<circle cx="14" cy="17" r="6" stroke="#F42F54" stroke-width="2"/>
<circle cx="52" cy="46" r="5" stroke="#F42F54" stroke-width="2"/>
<circle cx="3.5" cy="11.5" r="3" stroke="#F42F54"/>
<path d="M88.05 19.475C88.4667 19.475 88.825 19.625 89.125 19.925C89.4417 20.2083 89.6 20.5667 89.6 21V35.475C89.6 35.9083 89.4583 36.275 89.175 36.575C88.8917 36.8583 88.5167 37 88.05 37C87.5833 37 87.2 36.8583 86.9 36.575C86.6167 36.2917 86.475 35.925 86.475 35.475V25.4L82.35 31.7C82.1833 31.9 81.9917 32.0667 81.775 32.2C81.5583 32.3167 81.3333 32.3667 81.1 32.35C80.8833 32.3667 80.6667 32.3167 80.45 32.2C80.2333 32.0667 80.0417 31.9 79.875 31.7L75.75 25.175V35.475C75.75 35.925 75.6167 36.2917 75.35 36.575C75.0833 36.8583 74.7333 37 74.3 37C73.8833 37 73.5417 36.8583 73.275 36.575C73.0083 36.275 72.875 35.9083 72.875 35.475V21C72.875 20.5833 73.025 20.225 73.325 19.925C73.6417 19.625 74.0167 19.475 74.45 19.475C74.7 19.475 74.95 19.5417 75.2 19.675C75.45 19.7917 75.6417 19.95 75.775 20.15L81.225 28.525L86.825 20.15C86.9583 19.95 87.1333 19.7917 87.35 19.675C87.5833 19.5417 87.8167 19.475 88.05 19.475ZM109.458 28.25C109.458 29.9 109.092 31.4167 108.358 32.8C107.625 34.1667 106.608 35.25 105.308 36.05C104.025 36.85 102.575 37.25 100.958 37.25C99.3417 37.25 97.8834 36.85 96.5834 36.05C95.3001 35.25 94.2917 34.1667 93.5584 32.8C92.8417 31.4167 92.4834 29.9 92.4834 28.25C92.4834 26.6 92.8417 25.0917 93.5584 23.725C94.2917 22.3417 95.3001 21.25 96.5834 20.45C97.8834 19.65 99.3417 19.25 100.958 19.25C102.575 19.25 104.025 19.65 105.308 20.45C106.608 21.25 107.625 22.3417 108.358 23.725C109.092 25.0917 109.458 26.6 109.458 28.25ZM106.208 28.25C106.208 27.1333 105.983 26.125 105.533 25.225C105.083 24.3083 104.458 23.5833 103.658 23.05C102.858 22.5167 101.958 22.25 100.958 22.25C99.9417 22.25 99.0334 22.5167 98.2334 23.05C97.4501 23.5667 96.8334 24.2833 96.3834 25.2C95.9501 26.1167 95.7334 27.1333 95.7334 28.25C95.7334 29.3667 95.9501 30.3833 96.3834 31.3C96.8334 32.2167 97.4501 32.9417 98.2334 33.475C99.0334 33.9917 99.9417 34.25 100.958 34.25C101.958 34.25 102.858 33.9833 103.658 33.45C104.458 32.9167 105.083 32.2 105.533 31.3C105.983 30.3833 106.208 29.3667 106.208 28.25ZM128.428 28.25C128.428 29.9 128.061 31.4167 127.328 32.8C126.595 34.1667 125.578 35.25 124.278 36.05C122.995 36.85 121.545 37.25 119.928 37.25C118.311 37.25 116.853 36.85 115.553 36.05C114.27 35.25 113.261 34.1667 112.528 32.8C111.811 31.4167 111.453 29.9 111.453 28.25C111.453 26.6 111.811 25.0917 112.528 23.725C113.261 22.3417 114.27 21.25 115.553 20.45C116.853 19.65 118.311 19.25 119.928 19.25C121.545 19.25 122.995 19.65 124.278 20.45C125.578 21.25 126.595 22.3417 127.328 23.725C128.061 25.0917 128.428 26.6 128.428 28.25ZM125.178 28.25C125.178 27.1333 124.953 26.125 124.503 25.225C124.053 24.3083 123.428 23.5833 122.628 23.05C121.828 22.5167 120.928 22.25 119.928 22.25C118.911 22.25 118.003 22.5167 117.203 23.05C116.42 23.5667 115.803 24.2833 115.353 25.2C114.92 26.1167 114.703 27.1333 114.703 28.25C114.703 29.3667 114.92 30.3833 115.353 31.3C115.803 32.2167 116.42 32.9417 117.203 33.475C118.003 33.9917 118.911 34.25 119.928 34.25C120.928 34.25 121.828 33.9833 122.628 33.45C123.428 32.9167 124.053 32.2 124.503 31.3C124.953 30.3833 125.178 29.3667 125.178 28.25ZM144.573 19.5C144.973 19.5 145.298 19.6333 145.548 19.9C145.798 20.1667 145.923 20.5 145.923 20.9V35.475C145.923 35.9083 145.773 36.275 145.473 36.575C145.19 36.8583 144.831 37 144.398 37C144.165 37 143.931 36.9667 143.698 36.9C143.481 36.8167 143.323 36.7083 143.223 36.575L134.048 24.925V35.6C134.048 36 133.915 36.3333 133.648 36.6C133.398 36.8667 133.065 37 132.648 37C132.248 37 131.923 36.8667 131.673 36.6C131.423 36.3333 131.298 36 131.298 35.6V21.025C131.298 20.5917 131.44 20.2333 131.723 19.95C132.023 19.65 132.39 19.5 132.823 19.5C133.073 19.5 133.315 19.55 133.548 19.65C133.798 19.75 133.981 19.8833 134.098 20.05L143.198 31.65V20.9C143.198 20.5 143.323 20.1667 143.573 19.9C143.84 19.6333 144.173 19.5 144.573 19.5Z" fill="#F42F54"/>
<path d="M157.182 19.5C158.748 19.5 160.09 19.8917 161.207 20.675C162.34 21.4417 163.198 22.4917 163.782 23.825C164.382 25.1417 164.682 26.6167 164.682 28.25C164.682 29.8833 164.382 31.3667 163.782 32.7C163.198 34.0167 162.34 35.0667 161.207 35.85C160.09 36.6167 158.748 37 157.182 37H151.207C150.773 37 150.407 36.8583 150.107 36.575C149.823 36.275 149.682 35.9083 149.682 35.475V21.025C149.682 20.5917 149.823 20.2333 150.107 19.95C150.407 19.65 150.773 19.5 151.207 19.5H157.182ZM156.932 34.125C158.432 34.125 159.557 33.575 160.307 32.475C161.057 31.3583 161.432 29.95 161.432 28.25C161.432 26.55 161.048 25.15 160.282 24.05C159.532 22.9333 158.415 22.375 156.932 22.375H152.807V34.125H156.932ZM179.978 19.475C180.411 19.475 180.761 19.6167 181.028 19.9C181.294 20.1833 181.428 20.55 181.428 21V30.05C181.428 31.4333 181.136 32.6583 180.553 33.725C179.969 34.7917 179.153 35.625 178.103 36.225C177.053 36.825 175.853 37.125 174.503 37.125C173.153 37.125 171.944 36.825 170.878 36.225C169.828 35.625 169.011 34.7917 168.428 33.725C167.844 32.6583 167.553 31.4333 167.553 30.05V21C167.553 20.5667 167.703 20.2083 168.003 19.925C168.303 19.625 168.686 19.475 169.153 19.475C169.553 19.475 169.903 19.625 170.203 19.925C170.503 20.2083 170.653 20.5667 170.653 21V30.05C170.653 30.85 170.828 31.5667 171.178 32.2C171.528 32.8167 171.994 33.2917 172.578 33.625C173.178 33.9583 173.819 34.125 174.503 34.125C175.219 34.125 175.886 33.9583 176.503 33.625C177.136 33.2917 177.636 32.8167 178.003 32.2C178.386 31.5667 178.578 30.85 178.578 30.05V21C178.578 20.55 178.703 20.1833 178.953 19.9C179.203 19.6167 179.544 19.475 179.978 19.475ZM190.561 37.25C189.361 37.25 188.294 37.1 187.361 36.8C186.427 36.5 185.552 35.9917 184.736 35.275C184.286 34.875 184.061 34.4333 184.061 33.95C184.061 33.5667 184.202 33.2333 184.486 32.95C184.769 32.65 185.111 32.5 185.511 32.5C185.827 32.5 186.111 32.6 186.361 32.8C187.027 33.35 187.677 33.75 188.311 34C188.944 34.25 189.694 34.375 190.561 34.375C191.494 34.375 192.294 34.1667 192.961 33.75C193.644 33.3333 193.986 32.8167 193.986 32.2C193.986 31.45 193.652 30.8667 192.986 30.45C192.319 30.0167 191.261 29.6917 189.811 29.475C186.161 28.9417 184.336 27.2417 184.336 24.375C184.336 23.325 184.611 22.4167 185.161 21.65C185.711 20.8667 186.461 20.275 187.411 19.875C188.361 19.4583 189.419 19.25 190.586 19.25C191.636 19.25 192.619 19.4083 193.536 19.725C194.469 20.0417 195.244 20.4583 195.861 20.975C196.344 21.3583 196.586 21.8 196.586 22.3C196.586 22.6833 196.444 23.025 196.161 23.325C195.877 23.6083 195.544 23.75 195.161 23.75C194.911 23.75 194.686 23.675 194.486 23.525C194.052 23.175 193.444 22.8583 192.661 22.575C191.894 22.275 191.202 22.125 190.586 22.125C189.536 22.125 188.719 22.325 188.136 22.725C187.569 23.1083 187.286 23.6167 187.286 24.25C187.286 24.9667 187.577 25.5083 188.161 25.875C188.761 26.2417 189.694 26.5417 190.961 26.775C192.394 27.025 193.536 27.35 194.386 27.75C195.252 28.1333 195.902 28.6667 196.336 29.35C196.769 30.0167 196.986 30.9083 196.986 32.025C196.986 33.075 196.686 34 196.086 34.8C195.502 35.5833 194.719 36.1917 193.736 36.625C192.752 37.0417 191.694 37.25 190.561 37.25ZM211.353 19.5C211.803 19.5 212.169 19.6333 212.453 19.9C212.736 20.1667 212.878 20.5167 212.878 20.95C212.878 21.3833 212.736 21.7333 212.453 22C212.169 22.25 211.803 22.375 211.353 22.375H207.428V35.475C207.428 35.9083 207.269 36.275 206.953 36.575C206.636 36.8583 206.244 37 205.778 37C205.311 37 204.928 36.8583 204.628 36.575C204.328 36.275 204.178 35.9083 204.178 35.475V22.375H200.253C199.803 22.375 199.436 22.2417 199.153 21.975C198.869 21.7083 198.728 21.3583 198.728 20.925C198.728 20.5083 198.869 20.1667 199.153 19.9C199.453 19.6333 199.819 19.5 200.253 19.5H211.353Z" fill="white"/>
</svg>
