<?xml version="1.0" encoding="utf-8"?>
<!-- Generator: Adobe Illustrator 27.1.0, SVG Export Plug-In . SVG Version: 6.00 Build 0)  -->
<svg version="1.1" id="Layer_1" xmlns="http://www.w3.org/2000/svg" xmlns:xlink="http://www.w3.org/1999/xlink" x="0px" y="0px"
	 viewBox="0 0 1920 488.1" style="enable-background:new 0 0 1920 488.1;" xml:space="preserve">
<style type="text/css">
	.st0{fill:#FFFFFF;}
	.st1{fill:#E57310;}
</style>
<g>
	<g>
		<g>
			<path class="st0" d="M627.1,125.6c4.5,0,8.4,0.9,11.5,2.8c3.1,1.9,6.2,5.5,9.2,10.9L707.1,247c0.6,1.2,0.7,2.2,0.4,3
				c-0.3,0.8-1.2,1.2-2.6,1.2h-22.8c-2,0-3.4-0.8-4.1-2.3l-12.7-23.1h-84.3l-12.4,23.1c-0.8,1.6-2.2,2.3-4.1,2.3h-23.3
				c-1.6,0-2.5-0.4-2.8-1.2c-0.3-0.8-0.2-1.8,0.4-3l58.9-107.8c3-5.4,5.9-9,8.8-10.9c2.9-1.9,6.2-2.8,10-2.8H627.1z M592.2,204.9
				H654l-28.5-52.6c-0.5-0.8-1.1-1.3-2-1.3h-1.1c-0.8,0-1.5,0.4-2,1.3L592.2,204.9z"/>
			<path class="st0" d="M837.7,125.6c13.8,0,23.6,3.1,29.6,9.3c6,6.2,9,15.4,9,27.6v10.2c0,10.3-2.1,18.4-6.3,24.4
				c-4.2,6-11,9.8-20.5,11.5l30.7,38c0.6,0.6,0.8,1.5,0.5,2.7c-0.2,1.2-1.2,1.8-2.9,1.8h-23.1c-1.6,0-2.6-0.2-3.2-0.5
				c-0.6-0.4-1.2-1-1.8-1.8l-28.4-37.3h-58v35.7c0,2.6-1.3,3.9-3.9,3.9h-19.4c-2.8,0-4.1-1.3-4.1-3.9V131c0-3.6,1.8-5.4,5.4-5.4
				L837.7,125.6L837.7,125.6z M763.4,189.6h68.7c6.1,0,10.4-1.3,12.9-3.9c2.5-2.6,3.8-6.6,3.8-12v-7.5c0-5.4-1.3-9.4-3.8-12
				c-2.5-2.6-6.8-3.9-12.9-3.9h-66.4c-1.6,0-2.3,0.7-2.3,2.2V189.6z"/>
			<path class="st0" d="M1026.4,125.6c12.3,0,21.1,2.5,26.3,7.4c5.2,4.9,7.8,12.3,7.8,22.2v8.6c0,10-3.8,17.6-11.5,22.8
				c8.2,4.8,12.4,12.5,12.4,23.1v10.4c0,4.8-0.5,9.1-1.6,12.9c-1.1,3.8-2.8,7.1-5.3,9.8c-2.5,2.7-5.7,4.8-9.8,6.2
				c-4.1,1.4-9.1,2.2-15.1,2.2H923c-3.6,0-5.4-1.8-5.4-5.4V131c0-3.6,1.8-5.4,5.4-5.4L1026.4,125.6L1026.4,125.6z M945.1,177.8h73.6
				c6,0,10-0.9,12.2-2.7c2.2-1.8,3.2-4.4,3.2-7.9v-6.1c0-3.7-1-6.4-3.1-8.2c-2.1-1.7-5.5-2.6-10.1-2.6h-73.4c-1.6,0-2.3,0.8-2.3,2.3
				V177.8z M945.1,197.3v26.7c0,1.6,0.8,2.3,2.3,2.3h73.6c4.8,0,8.2-0.9,10.2-2.6c2-1.7,3.1-4.5,3.1-8.3v-6.8c0-3.7-1.1-6.5-3.3-8.4
				c-2.2-1.9-6.3-2.9-12.3-2.9L945.1,197.3L945.1,197.3z"/>
			<path class="st0" d="M1128.3,125.6c2.6,0,3.9,1.3,3.9,3.9v117.7c0,2.6-1.3,3.9-3.9,3.9h-19.4c-2.8,0-4.1-1.3-4.1-3.9V129.5
				c0-2.6,1.4-3.9,4.1-3.9L1128.3,125.6z"/>
			<path class="st0" d="M1316.3,125.6c2.8,0,4.1,1.3,4.1,3.9v17.6c0,2.8-1.4,4.1-4.1,4.1H1260v96c0,2.6-1.3,3.9-3.9,3.9h-19.6
				c-2.6,0-3.9-1.3-3.9-3.9v-96h-56.3c-2.8,0-4.1-1.4-4.1-4.1v-17.6c0-2.6,1.4-3.9,4.1-3.9H1316.3z"/>
			<path class="st0" d="M1458.2,125.6c13.8,0,23.6,3.1,29.6,9.3c6,6.2,9,15.4,9,27.6v10.2c0,10.3-2.1,18.4-6.3,24.4
				c-4.2,6-11,9.8-20.5,11.5l30.7,38c0.6,0.6,0.8,1.5,0.5,2.7c-0.2,1.2-1.2,1.8-2.9,1.8h-23.1c-1.6,0-2.6-0.2-3.2-0.5
				c-0.6-0.4-1.2-1-1.8-1.8l-28.4-37.3h-58v35.7c0,2.6-1.3,3.9-3.9,3.9h-19.4c-2.8,0-4.1-1.3-4.1-3.9V131c0-3.6,1.8-5.4,5.4-5.4
				L1458.2,125.6L1458.2,125.6z M1384,189.6h68.7c6.1,0,10.4-1.3,12.9-3.9c2.5-2.6,3.8-6.6,3.8-12v-7.5c0-5.4-1.3-9.4-3.8-12
				c-2.5-2.6-6.8-3.9-12.9-3.9h-66.4c-1.6,0-2.3,0.7-2.3,2.2L1384,189.6L1384,189.6z"/>
			<path class="st0" d="M1559.1,125.6c2.6,0,3.9,1.3,3.9,3.9v71.6c0,4.8,0.4,8.8,1.2,11.9c0.8,3.2,2.1,5.7,3.9,7.5
				c1.8,1.9,4.2,3.2,7.3,3.9c3.1,0.8,6.9,1.2,11.6,1.2h49.7c4.7,0,8.5-0.4,11.6-1.2c3.1-0.8,5.5-2.1,7.3-3.9
				c1.8-1.9,3.1-4.4,3.8-7.5c0.7-3.2,1.1-7.1,1.1-11.9v-71.6c0-2.6,1.3-3.9,3.9-3.9h19.6c2.6,0,3.9,1.3,3.9,3.9v74.3
				c0,8.6-0.9,15.9-2.7,22c-1.8,6-4.7,10.9-8.7,14.7c-4,3.8-9.2,6.5-15.6,8.2c-6.4,1.7-14.1,2.5-23.2,2.5h-51.7
				c-9.1,0-16.8-0.8-23.1-2.5c-6.3-1.7-11.5-4.4-15.5-8.2c-4-3.8-6.9-8.7-8.8-14.7s-2.8-13.4-2.8-22v-74.3c0-2.6,1.4-3.9,4.1-3.9
				H1559.1z"/>
			<path class="st0" d="M1765,125.6c2.6,0,4.9,0.2,6.8,0.5c1.9,0.4,3.6,1,5,2.1c1.4,1,2.7,2.4,3.9,4.1c1.1,1.7,2.3,4,3.5,6.9
				l37.3,86.1c0.5,1.1,1.3,1.6,2.5,1.6h2.2c1.2,0,2-0.5,2.5-1.6l37.3-86.1c1.2-2.9,2.4-5.2,3.5-6.9c1.1-1.7,2.4-3.1,3.9-4.1
				c1.4-1,3.1-1.7,4.9-2.1c1.9-0.4,4.1-0.5,6.7-0.5h19.2c6.2,0,10.4,1.4,12.6,4.2c2.2,2.8,3.2,7.6,3.2,14.4v103
				c0,2.6-1.4,3.9-4.1,3.9h-18.3c-2.6,0-3.9-1.3-3.9-3.9v-93.7c0-1.2-0.5-1.8-1.4-1.8h-1.6c-1.2,0-2,0.5-2.3,1.4l-36.2,80.4
				c-1.4,3.2-2.9,6-4.4,8.2c-1.5,2.2-3.1,4-4.8,5.5c-1.7,1.4-3.7,2.5-5.9,3.1c-2.2,0.6-4.8,0.9-7.8,0.9h-8.6c-3,0-5.6-0.3-7.8-0.9
				c-2.2-0.6-4.2-1.6-5.9-3.1c-1.7-1.4-3.4-3.3-4.8-5.5c-1.5-2.2-3-4.9-4.4-8.2l-36.2-80.4c-0.4-1-1.1-1.4-2.3-1.4h-1.6
				c-1,0-1.4,0.6-1.4,1.8v93.7c0,2.6-1.3,3.9-3.9,3.9h-18.3c-2.8,0-4.1-1.3-4.1-3.9v-103c0-6.8,1.1-11.6,3.2-14.4
				c2.2-2.8,6.4-4.2,12.7-4.2H1765z"/>
		</g>
		<g>
			<path class="st1" d="M557,288.3c1.7,0,3.1,0.1,4.2,0.2c1.1,0.1,2.1,0.4,3,0.9c0.8,0.5,1.7,1.1,2.4,1.9c0.8,0.8,1.7,1.9,2.6,3.2
				l39.4,51.7c0.3,0.5,0.7,0.7,1.4,0.7h1c0.6,0,0.8-0.4,0.8-1.1v-55.3c0-1.6,0.8-2.3,2.3-2.3h11.1c1.6,0,2.3,0.8,2.3,2.3v60.8
				c0,4.3-0.8,7.2-2.3,8.7c-1.6,1.5-4,2.3-7.2,2.3h-9.1c-1.6,0-3-0.1-4.1-0.2c-1.1-0.1-2.1-0.4-2.9-0.8c-0.8-0.4-1.7-1-2.5-1.9
				c-0.8-0.8-1.7-1.9-2.8-3.3l-39.5-51.7c-0.4-0.5-0.9-0.7-1.4-0.7h-1c-0.6,0-0.8,0.4-0.8,1.1v55.3c0,1.6-0.8,2.3-2.3,2.3h-11.1
				c-1.6,0-2.4-0.8-2.4-2.3v-60.8c0-4.3,0.8-7.2,2.3-8.7c1.6-1.5,4-2.3,7.2-2.3H557z"/>
			<path class="st1" d="M714,288.3c5.4,0,9.9,0.5,13.7,1.5c3.8,1,6.9,2.6,9.2,4.9c2.4,2.2,4.1,5.1,5.1,8.6c1.1,3.5,1.6,7.8,1.6,12.9
				v18.2c0,5.1-0.5,9.4-1.6,13c-1.1,3.6-2.8,6.5-5.1,8.7c-2.4,2.2-5.4,3.8-9.2,4.8c-3.8,1-8.4,1.5-13.7,1.5h-32.8
				c-5.4,0-9.9-0.5-13.7-1.5c-3.7-1-6.8-2.6-9.2-4.8c-2.4-2.2-4.1-5.1-5.2-8.7c-1.1-3.6-1.6-7.9-1.6-13v-18.2
				c0-5.1,0.5-9.4,1.6-12.9c1.1-3.5,2.8-6.4,5.2-8.6c2.4-2.2,5.4-3.9,9.2-4.9c3.7-1,8.3-1.5,13.7-1.5H714z M667.8,333.3
				c0,2.8,0.2,5.1,0.7,6.9c0.5,1.9,1.2,3.4,2.3,4.5c1.1,1.1,2.5,1.9,4.3,2.3c1.8,0.5,4.1,0.7,6.8,0.7h31.5c2.8,0,5-0.2,6.8-0.7
				c1.8-0.5,3.2-1.2,4.3-2.3c1.1-1.1,1.8-2.6,2.3-4.5c0.5-1.9,0.7-4.2,0.7-6.9v-15.9c0-2.8-0.2-5.1-0.7-6.9
				c-0.5-1.9-1.2-3.4-2.3-4.5c-1.1-1.1-2.5-1.9-4.3-2.3c-1.8-0.5-4.1-0.7-6.8-0.7h-31.5c-2.8,0-5,0.2-6.8,0.7
				c-1.8,0.5-3.2,1.2-4.3,2.3c-1.1,1.1-1.8,2.6-2.3,4.5c-0.5,1.9-0.7,4.2-0.7,6.9V333.3z"/>
			<path class="st1" d="M770.7,288.3c0.7,0,1.2,0.1,1.5,0.3c0.3,0.2,0.6,0.6,0.9,1.1l31.1,57c0.2,0.5,0.6,0.7,1.3,0.7h0.5
				c0.5,0,0.9-0.2,1.2-0.7l30.6-57c0.4-0.9,1.2-1.4,2.4-1.4h13.9c0.8,0,1.4,0.2,1.5,0.7c0.2,0.5,0.1,1-0.3,1.7l-34.8,63.7
				c-1.8,3.3-3.5,5.4-5.2,6.5c-1.7,1.1-3.7,1.6-5.9,1.6h-6.1c-2.8,0-5-0.5-6.8-1.6c-1.8-1.1-3.6-3.2-5.4-6.5L756,290.7
				c-0.4-0.7-0.4-1.3-0.3-1.7c0.2-0.5,0.7-0.7,1.6-0.7H770.7z"/>
			<path class="st1" d="M901.9,288.3c2.7,0,4.9,0.5,6.8,1.6c1.8,1.1,3.6,3.2,5.4,6.4l35.1,63.7c0.4,0.7,0.4,1.3,0.3,1.7
				c-0.2,0.5-0.7,0.7-1.5,0.7h-13.5c-1.2,0-2-0.5-2.4-1.4l-7.5-13.7h-49.8l-7.3,13.7c-0.5,0.9-1.3,1.4-2.4,1.4h-13.8
				c-0.9,0-1.5-0.2-1.6-0.7s-0.1-1,0.3-1.7l34.8-63.7c1.8-3.2,3.5-5.3,5.2-6.4c1.7-1.1,3.7-1.6,5.9-1.6H901.9z M881.4,335.1h36.5
				L901,304.1c-0.3-0.5-0.7-0.7-1.2-0.7h-0.6c-0.5,0-0.9,0.2-1.2,0.7L881.4,335.1z"/>
		</g>
	</g>
	<g>
		<path class="st1" d="M216.5,30.1c1.2,0,2.3,0.3,3.4,0.9l179.5,103.6c2.1,1.2,3.4,3.4,3.4,5.8v207.2c0,2.4-1.3,4.6-3.4,5.8
			L219.9,457.1c-1,0.6-2.2,0.9-3.4,0.9c-1.2,0-2.3-0.3-3.4-0.9L33.7,353.5c-2.1-1.2-3.4-3.4-3.4-5.8V140.4c0-2.4,1.3-4.6,3.4-5.8
			L213.1,31C214.2,30.4,215.3,30.1,216.5,30.1 M216.5-0.2c-6.4,0-12.8,1.7-18.5,5L18.5,108.4C7.1,115,0,127.2,0,140.4v207.2
			c0,13.2,7.1,25.4,18.5,32.1L198,483.3c5.7,3.3,12.1,5,18.5,5c6.4,0,12.8-1.7,18.5-5l179.5-103.6c11.5-6.6,18.5-18.8,18.5-32.1
			V140.4c0-13.2-7.1-25.4-18.5-32.1L235,4.7C229.3,1.4,222.9-0.2,216.5-0.2L216.5-0.2z"/>
		<g>
			<path class="st1" d="M170.7,137.9h-23.4c-1.8,0-3.3,1.1-3.9,2.8L67.9,347.4c-0.5,1.4,0.5,2.8,2,2.8h23.4c1.8,0,3.3-1.1,3.9-2.8
				l75.4-206.8C173.2,139.3,172.2,137.9,170.7,137.9z"/>
			<path class="st1" d="M201.1,218.1c-0.7-1.8-3.3-1.8-3.9,0L185,251.5c-0.3,0.9-0.3,1.9,0,2.9l34,93.1c0.6,1.7,2.2,2.8,3.9,2.8
				h23.4c1.5,0,2.5-1.4,2-2.8L201.1,218.1z"/>
			<path class="st1" d="M211.7,137.9h-23.4c-1.8,0-3.3,1.1-3.9,2.8L109,347.4c-0.5,1.4,0.5,2.8,2,2.8h23.4c1.8,0,3.3-1.1,3.9-2.8
				l75.4-206.8C214.2,139.3,213.2,137.9,211.7,137.9z"/>
			<path class="st1" d="M221.6,161.8c-0.7-1.8-3.3-1.8-3.9,0l-12.2,33.4c-0.3,0.9-0.3,1.9,0,2.9l54.5,149.3c0.6,1.7,2.2,2.8,3.9,2.8
				h23.4c1.5,0,2.5-1.4,2-2.8L221.6,161.8z"/>
			<path class="st1" d="M363.1,137.9h-23.4c-1.8,0-3.3,1.1-3.9,2.8L281.2,290c-0.3,0.9-0.3,1.9,0,2.9l12.2,33.4
				c0.7,1.8,3.3,1.8,3.9,0L365,140.7C365.5,139.3,364.5,137.9,363.1,137.9z"/>
			<path class="st1" d="M272.9,270c0.7,1.8,3.3,1.8,3.9,0L324,140.7c0.5-1.4-0.5-2.8-2-2.8h-23.4c-1.8,0-3.3,1.1-3.9,2.8l-34,93.1
				c-0.3,0.9-0.3,1.9,0,2.9L272.9,270z"/>
		</g>
	</g>
</g>
</svg>
