<?xml version="1.0" encoding="UTF-8"?>
<svg id="Layer_1" data-name="Layer 1" xmlns="http://www.w3.org/2000/svg" viewBox="0 0 1041.46 249">
  <defs>
    <style>
      .cls-1 {
        fill: #fff;
      }
    </style>
  </defs>
  <path class="cls-1" d="m169.02,105c-1.52-5.36-4.92-9.53-8.5-13.61-1.32-1.5-2.51-3.12-2.58-5.39-.68,0-1.34-.06-1.99,0-3.11.32-4.86-1.39-6.03-3.98-.54-1.21-.77-1.18-1.94-.64-.89.41-2.03.74-2.93.52-1.82-.43-3.56-1.26-4.62-2.95-.54-.87-1.03-.87-1.82-.38-2.61,1.61-5.79,1.31-8.16-.77-.68-.6-1.24-.63-1.97-.05-.84.67-1.75,1.26-2.69,1.79-1.35.76-2.74.9-4.14.01-.44-.28-.99-.43-1.5-.57-.65-.17-1.13,0-1.56.65-1.71,2.6-3.61,3.31-6.86,2.61-1.63-.35-1.47-.32-2.07,1.19-.55,1.39-1.23,2.71-2.76,3.53-1.54.82-3.05,1.21-4.55,1.01-.42,1.35-.79,2.57-1.19,3.79-.67,2.07-2.14,3.16-4.36,3.25-1.29.05-1.8.57-1.81,1.82,0,.12-.02.26,0,.37.65,2.89-1.1,4.61-3.09,6.15-.49.38-1.2.49-1.87.75,2.03,3.92,1.1,7.23-2.19,9.97.58,1.11,1.13,2.21,1.72,3.29.65,1.18.55,2.33-.09,3.45-.51.9-1.16,1.72-1.65,2.63-.16.31-.11.8,0,1.16.09.29.41.52.63.76,2.42,2.72,2.64,5.2.76,8.34-.04.06-.02.16-.03.29,4.08,1.59,5.27,4.81,4.77,8.68,1.27.62,2.49,1.01,3.44,1.73.96.73,1.96,1.67,2.39,2.74.44,1.08.2,2.44.26,3.78,2.04-.13,3.93.61,5.27,1.95,1.3,1.29,2.05,3.13,3.12,4.84.26-.14.75-.54,1.3-.68,1.61-.41,5.31,1.48,6.05,3,.22.45.54.84.75,1.29.35.73.96.87,1.55.54,3.39-1.9,5.74-.17,7.95,2.19.25.27.56.49.96.84,3.53-2.98,6.85-2.37,9.86.88,1.44-2.68,3.63-3.91,6.39-3.72,1.24.09,2.48.84,3.61,1.49.67.38,1.01.4,1.41-.23,1.07-1.71,2.85-2.46,4.6-3.15.57-.22,1.36,0,2.02.17.55.14,1.05.49,1.57.74,1.12.53,1.96.32,2.63-.79,1.13-1.9,3.17-2.4,5.07-3.05.44-.15,1.08.05,1.55.27.69.32,1.05.09,1.22-.54.84-3.13,2.97-5.04,6.03-5.6,1.76-.32,2.22-1.41,2.7-2.71,1.08-2.92,3-4.68,6.27-4.67.12,0,.24-.06.56-.16-1.02-1.31-.5-2.57-.1-3.95.53-1.82,1.69-2.87,3.29-3.64.56-.27,1.12-.57,1.58-.98.25-.22.39-.69.38-1.04-.03-.91-.3-1.82-.24-2.72.05-.74.28-1.59.72-2.16.99-1.26,2.03-2.49,3.78-2.88,1.24-.28.53-1.26.22-1.8-1.55-2.7-1.3-4.92.92-7.02.48-.45.99-.9,1.56-1.24.9-.54.93-1.28.24-1.82-1.96-1.52-1.84-3.7-1.48-5.61.33-1.73,1.84-2.89,3.98-3.17-.29-.42-.5-.78-.75-1.1-.9-1.18-1.91-2.29-2.7-3.54-.66-1.04-.98-2.24.16-3.27.03-.03.07-.06.07-.1.22-1.92,1.52-2.69,3.36-2.9,0-.13,0-.25.01-.38-.76-.51-1.55-.98-2.29-1.53-.61-.45-1.15-.99-1.72-1.48-.03-.08-.06-.17-.09-.25-.03-.17-.05-.34-.08-.5.05-.23.23-.54.14-.68-1.15-1.81.33-2.99,1.11-4.24.85-1.36,2.42-1.73,3.92-2.07,1.59.45,2.85,1.09,3.85,2.69,1.18,1.89.43,3.92-.75,5.49-.41.55-1.28.74-1.93,1.11-.22.13-.42.3-.63.45.18.17.33.43.54.49,1.84.49,3,1.88,4.2,3.19.17.19.2.53.23.81.04.46-.03.92.02,1.37.35,3.59-.8,4.3-3.83,5.77,1.04.84,2.15,1.62,3.1,2.55.41.4.55,1.12.7,1.73.11.43,0,.92.05,1.37.26,2.22-.9,3.65-2.68,4.65-.78.44-.77.88-.41,1.5.44.75.96,1.46,1.37,2.22,1.27,2.39,1.04,4.24-.9,6.1-.95.91-2.1,1.63-3.34,2.58.73,1.8,2.88,3.55,1.47,6.36-1.2,2.38-2.47,4.26-5.5,3.81.36,1.46.66,2.82,1.09,4.14.04.13,1.13.21,1.32-.03,1.24-1.49,2.94-1.29,4.39-.97,1.04.23,1.99,1.27,2.75,2.15.59.68.81,1.68,1.19,2.54.02.04.03.08.03.12.1,1.1-2.26,4.92-3.32,4.97-1.5.06-3.02-.25-4.53-.43-.18-.02-.35-.16-.75-.09.5.87,1.17,1.69,1.44,2.63.26.88.45,2.08.05,2.79-.79,1.42-1.99,2.62-3.08,3.85-.19.21-.69.17-1.05.18-1.24.02-2.48,0-3.79,0,.07.65.16,1.3.2,1.95.28,4.05-2.65,6.72-6.73,5.9-.12-.02-.24-.07-.36-.09-1.34-.23-1.62.01-1.61,1.37.03,2.45-1.38,4.61-3.51,5.29-1.61.52-3.2.31-4.78-.2-1.43-.46-1.54-.41-1.47,1.04.05,1.1-.22,2.07-1.1,2.63-1.41.91-2.88,1.78-4.43,2.38-.63.25-1.63-.09-2.33-.43-1.58-.77-2.01-.69-2.91.81-.32.54-.79.99-1.28,1.58.97.46,1.75.82,2.54,1.19,1.63.75,2.71,1.9,2.72,3.8,0,.87.1,1.77-.08,2.61-.51,2.44-4.38,4.08-6.41,2.68-1.08-.74-2.13-1.67-2.83-2.75-.88-1.35-.53-2.88.27-4.24.37-.63.83-1.2,1.47-2.11-2.8,1.12-4.81-.31-6.98-1.21-.38,1.07.18,1.61.95,2.05,2.72,1.54,3.84,4.49,2.8,7.37-.41,1.15-2.35,2.51-3.58,2.52-.54,0-1.08,0-1.62,0-2.56,0-4.03-1.23-4.52-3.76-.03-.15-.14-.29-.35-.69-.32.48-.64.78-.73,1.14-.75,3.17-3.63,3.87-6.05,3.48-1.71-.27-3.13-.97-3.88-2.71-.21-.48-.78-.8-1.2-1.2-3.19,3.98-8.4,3.85-10.63-2.03-.8.34-1.66.58-2.38,1.04-2.12,1.37-4.01.62-5.8-.58-1.15-.77-2.04-1.78-2.4-3.22-.34-1.38-.64-1.41-1.93-.9-.91.36-1.89.52-3.05.82.34.46.59.86.89,1.2,2.18,2.52.93,6.38-2.18,7.59-1.73.67-3.05.24-4.44-.48-1.49-.77-2.01-2.3-2.51-3.73-.45-1.31,1.13-4.09,2.41-4.63,1.02-.43,2.01-.9,3.02-1.36-.77-.99-1.6-1.94-2.3-2.99-.35-.53-.56-1.2-.66-1.84-.18-1.2-.19-1.25-1.53-.94.17,1.51.45,3.02.5,4.54.09,2.53-1.92,4.82-4.42,5.24-1.8.3-4.48-1.6-5.29-3.2-.86-1.7-.69-3.22-.01-5.06-2.64.97-4.88.38-6.85-1.28-1.64-1.38-1.98-3.87-.92-6.75-.49-.07-.95-.22-1.4-.19-4.09.25-5.9-3.47-6.3-6.25-.08-.53.39-1.14.63-1.7.52-1.21.25-1.58-1.03-1.83-.69-.14-1.4-.51-1.93-.97-.87-.75-1.61-1.66-2.65-2.76-.11.97-.19,1.75-.3,2.52-.16,1.08-.35,2.16-.52,3.23-.08.09-.15.17-.23.26-.17.17-.34.34-.51.51-.09.07-.18.14-.27.22,0,0,0,0,0,0-1.3.62-2.46,1.64-4.05,1.44-.08-.05-.15-.1-.23-.15-.08-.05-.16-.09-.24-.14-1.75-.31-3.04-1.15-3.72-2.91-.87-2.27-.54-3.97,1.26-5.64.38-.35.72-.73,1.3-1.33-3.6-.48-5.55-2.44-6.16-5.63-.26-1.35,1.23-3.7,2.84-4.66-.5-.56-.87-1.25-1.45-1.6-2.7-1.64-2.98-4.23-2.43-6.86.22-1.05,1.39-2,2.32-2.78.75-.63.8-1.01.02-1.48-3.71-2.21-3.39-7.71-.37-9.85.92-.65.89-1.25.28-2.16-2.41-3.6-1.61-7.15,2.07-9.51.97-.62.59-1.42.32-2.19-.28-.81-.65-1.6-.97-2.38-1.28.44-2.66.91-4.2,1.44.2.53.39,1.28.73,1.95,1.36,2.71-.51,6.59-3.47,7.2-.59.12-1.16.34-1.72.51.93,1.89,2.12,3.44,1.94,5.67-.28,3.39-3.96,5.66-6.97,4.06-2.85-1.51-3.67-3.3-2.94-6.29.31-1.26.95-2.16,2.19-2.67.99-.41,1.91-.96,2.97-1.5-1.62-1.86-3.84-3.38-2.71-6.22.95-2.39,2.41-4.2,5.5-4.08-.42-1.02-.68-2.02-1.21-2.84-1.25-1.91-.3-3.53.64-5.05.88-1.44,2.22-2.5,3.93-2.89.83-.19.94-.6.81-1.33-.14-.86-.19-1.73-.26-2.6-.14-1.77.86-3.07,1.89-4.33.23-.29.7-.4,1.08-.55.23-.09.5-.07.73-.17.96-.43,1.91-.88,2.77-1.28.15-1.24.18-2.67.52-4.03.61-2.43,3.18-4.37,5.63-4.39,1,0,1.31-.36,1.41-1.38.3-2.88,2.03-4.89,4.48-6.21.69-.37,1.72-.2,2.58-.14.94.07,1.36-.27,1.66-1.18.39-1.2,1.01-2.33,1.61-3.7-.84-.39-1.69-.86-2.6-1.17-.64-.22-1.03.05-1.17.84-.44,2.52-3.04,4.82-5.58,4.88-.65.02-1.32-.42-1.95-.72-1.17-.56-1.66-.37-1.54.85.35,3.4-3.18,6.38-6.82,5.67-.56-.11-1.06-.54-1.7-.87-.09,1.5-.22,2.93-.24,4.36-.03,1.62-1.71,3.5-3.34,3.49-1.2,0-2.56.18-3.57-.31-1.1-.53-2.42-1.58-2.7-2.66-.61-2.35-.36-4.87,2.08-6.25.92-.52,2.23-.49,3.37-.49,2.41,0,2.4.05,1.62-2.15-.11-.3-.2-.66-.15-.96.37-2.31,3.05-5.11,5.37-5.33,1.1-.11,2.26.34,3.56.57,0-.67-.05-1.37,0-2.05.18-2.04,1.08-3.6,2.96-4.59,1.54-.81,3.02-1.32,4.74-.57.84.37,1.45.01,1.65-.92.59-2.64,2.25-4.21,4.78-5.1,1.24-.44,2.25-.23,3.34.26,1.43.65,1.62.55,2.12-.93.56-1.66,3.45-3.73,5.22-3.74.83,0,1.68-.09,2.5.03.61.09,1.23.36,1.74.7.54.36.99.61,1.22-.2.8-2.83,4.93-4.24,7.69-3.7.88.17,1.7.64,2.58.83.43.09,1.13.02,1.38-.26,1.97-2.28,4.54-2.69,7.28-2.33,1.03.14,2.01.73,2.98,1.17.81.36,1.44.17,2.19-.28.99-.59,2.14-.91,3.36-1.41-.1-.12-.28-.49-.47-.49-.7-.02-1.57-.17-2.07.17-2.29,1.57-4.45.63-6.09-.71-1.96-1.6-3.39-1.37-5.29-.13-2.32,1.52-4.51.38-6.45-.97-1.04-.73-1.63-.59-2.42.24-2.2,2.31-6.23,2.3-8.43,0-.7-.73-1.1-.74-1.47.26-.82,2.24-2.61,3.49-4.78,3.97-1.71.37-3-.9-4.24-1.95-.25-.21-.42-.52-.68-.72-.56-.44-.94-.24-1.05.42-.06.36-.02.75-.03,1.12-.03,2.59-1.68,4.17-4.23,4.27-1.79.06-3.43-.05-4.46-1.76-.28-.47-.46-1.03-.56-1.57-.1-.57,0-1.17-.08-1.74-.26-1.89.5-3.24,2.12-4.14,1.61-.9,3.27-.99,4.86-.01.85.52,1.58,1.24,2.49,1.98.03-.63.14-1.3.09-1.96-.31-3.57,3.67-5.96,6.7-5.26.67.16,1.33.7,1.83,1.23.68.73,1.04.54,1.45-.2.34-.62.68-1.26,1.12-1.8,1.09-1.35,2.27-2.35,4.26-2.36,2.03,0,3.83.34,5.54,1.62.28-.36.52-.63.72-.93,1.19-1.75,2.83-2.52,4.96-2.67,2.07-.15,3.75.44,5.2,1.85.51.5.98.57,1.45-.05,1.14-1.51,2.66-1.82,4.5-1.81,2.1.01,4.02.2,5.71,1.59.83.68,1.9.64,2.7.07,1.47-1.05,3.14-.82,4.55-.46,1.75.45,3.57,1.28,4.58,3.02.47.8,1.15.76,1.68.46,2.29-1.33,4.39-.57,6.49.44,1.56.75,2.7,1.91,3.21,3.7,1.09,0,2.17,0,3.25,0,3.38,0,6.42,2.18,7.66,5.41.11.28.68.57,1.03.56,3.31-.12,5.58,1.7,7.4,4.12.73.98,1.01,2.29,1.53,3.54,2.64.51,4.76,2.01,6.43,4.3.68.93,1.13,1.77,1.17,2.99.05,1.45.78,2.57,2.25,3.3,1.05.53,1.96,1.52,2.68,2.49,1.42,1.92,2.05,4.14,1.73,6.56-.13.98.25,1.72.99,2.41,2.05,1.92,3.38,4.18,3.06,7.16-.16,1.45-.1,2.91.77,4.22.17.25.18.64.18.96,0,3.33.01,6.67-.06,10-.01.72-.32,1.43-.52,2.14-.2.71-.64,1.41-.62,2.11.02,1.2-.14,2.28-.88,3.24-.53.7-1.05.56-1.69.11-.63-.44-1.38-.71-2.03-1.12-.36-.23-.76-.53-.94-.9-.46-.97-1.21-1.46-2.21-1.59-.92-.12-1.95-.12-2.43.83-.83,1.63-2.13,3.07-2.15,5.07,0,.28-.45.55-.7.83Zm-106.03,50.73c.52.11.89.29,1.23.24,1.38-.21,2.36.38,3.25,1.36.33.36.9.51,1.53.86,0-.75-.04-1.16,0-1.57.16-1.34-.52-2.83.74-3.98.11-.1.08-.57-.05-.68-.87-.76-1.78-1.48-2.74-2.27q-1.23,3.2-3.97,6.03Zm130.75-9.64s-.21.02-.3.13c-.87.97-1.82,1.76-3.15,2.08-.62.15-1.22.53-1.75.91-.25.18-.33.6-.48.92.32.08.68.29.95.2.78-.26,1.53-.61,2.28-.96,1.04-.5,2.01-.69,2.97.22.22.21.69.16,1.04.22,0-.37.15-.81,0-1.1-.42-.85-.96-1.64-1.55-2.61Z"/>
  <path class="cls-1" d="m383.42,145.78c-3.39-4.73-6.46-9.65-7.66-15.43-.75-3.59-1.28-7.24-1.71-10.89-.15-1.31.28-2.7.48-4.05.11-.74.33-1.46.39-2.2.39-5.44,2.69-10.21,5.29-14.86,2.19-3.9,4.93-7.38,8.31-10.33.4-.35.85-.66,1.27-.99.15-.11.3-.22.46-.33.06-.05.13-.11.19-.16.35.02.86.2,1.03.03.35-.35.53-.87.78-1.33.08-.08.16-.16.24-.24.83-.28,1.69-.48,2.48-.85.55-.25.96-.81,1.51-1.07,1.81-.86,3.67-1.65,5.49-2.49.15-.07.21-.33.31-.51.43-.19.85-.4,1.29-.56.79-.28,1.59-.55,2.39-.8.3-.1.62-.17.93-.21,2.11-.29,4.21-.65,6.33-.82,1.59-.13,3.21-.11,4.81,0,1.3.09,2.58.52,3.87.59,2.75.16,5.26,1.13,7.83,1.97,6.94,2.27,12.77,6.31,17.66,11.57,3.42,3.69,6.01,8.04,7.57,12.92.55,1.71,1.34,3.35,1.76,5.09.49,2.01.74,4.08,1.04,6.13.48,3.33.35,6.62-.55,9.89-.49,1.78-.61,3.68-1.22,5.41-1.05,2.99-2.17,5.99-3.59,8.81-2.1,4.2-5.32,7.61-8.66,10.86-3.05,2.96-6.68,5.07-10.48,6.88-1.41.67-2.84,1.38-4.34,1.81-1.84.53-3.77.76-5.66,1.15-1.09.22-2.17.49-3.25.74-.1,0-.19.01-.29.02-.57.05-1.14.1-1.72.14-2.09-.05-4.19-.1-6.28-.16-1.56-.26-3.13-.49-4.68-.79-.55-.11-1.07-.37-1.6-.57-.34-.13-.69-.42-1-.39-1.72.2-2.97-1-4.47-1.43.08-1.46,1.22-2.14,2.25-2.77,1.96-1.19,2.37-3.54.8-5.2-.32-.34-.71-.81-.72-1.22-.02-.99-.5-1.22-1.34-1.15-1.23.11-2.41-.02-3.45-.75-.84-.59-1.71-1.15-2.52-1.8-1.06-.84-1.03-2.38,0-2.82,3.53,2.86,7.1,5.63,11.76,6.42.09.02.15.19.25.25.46.24.91.59,1.41.68.85.14,1.95-.2,2.55.22,1.38.96,2.84.83,4.31.79,1.53-.04,3.05-.16,4.57-.34,1.14-.14,2.26-.42,3.39-.65.48-.1,1.21-.05,1.39-.34.49-.78,1.16-.62,1.84-.67.36-.03.76-.09,1.06-.28,3.04-1.87,6.22-3.55,9.03-5.72,2.13-1.64,3.95-3.78,5.59-5.94,1.09-1.42,1.51-3.33,2.43-4.91,1.14-1.97,1.73-4.02,1.7-6.28,0-.23.13-.46.17-.7.27-1.54.73-3.08.74-4.63.03-2.15.13-4.26-.55-6.46-.68-2.19-.93-4.52-1.95-6.67-1.33-2.81-2.66-5.51-4.86-7.85-3.06-3.26-6.3-6.19-10.38-8.03-2.28-1.02-4.7-1.76-7.09-2.52-1-.32-2.09-.43-3.14-.55-1.43-.17-2.89-.46-4.31-.36-2.22.15-4.41.58-6.62.92-.35.06-.68.28-1.02.42-.46.19-.92.42-1.4.56-.39.12-.87.04-1.21.22-1.95,1.05-3.94,2.06-5.8,3.25-3.37,2.15-6.18,4.98-8.55,8.14-2.46,3.27-3.95,7.11-5.08,11.04-.43,1.48-.36,3.09-.57,4.63-.52,3.74.18,7.36,1.13,10.93,1,3.77,2.9,7.13,5.18,10.28-.94,1.1-2.03,1.87-3.48,2.3-1.67.5-3.13,1.33-2.79,3.58.1.7-.38,1.35-1.27,1.39Z"/>
  <path class="cls-1" d="m580.77,77.43c.74,0,1.47-.02,2.21-.03.18,0,.36,0,.54,0,2.24,0,4.47.01,6.71.02.1,0,.2,0,.29.01,1.27.3,2.53.8,3.8.86,1.73.08,3.11.99,4.67,1.47.36.43.64,1,1.09,1.25,1.18.67,2.44,1.2,3.77,1.84.17-.07.51-.2.84-.33,1.69,1.54,3.46,3,5.05,4.64,1.6,1.64,2.54,3.69,3.45,5.82.87,2.05.77,4.04.8,6.09.05,4.31-4.11,5.77-7.27,4.55-1.03-.4-1.9-1.74-2.39-2.84-.62-1.4-.48-3.19-1.23-4.48-.95-1.64-2.26-3.28-3.81-4.33-1.91-1.3-4.26-1.96-6.37-2.99-3.58-1.74-7.44-1.23-11.06-.83-4.5.5-8.8,2.21-11.69,6.12-.82,1.11-1.54,2.31-2.13,3.55-.23.48-.15,1.23.04,1.78.81,2.41,2.65,4.08,4.71,5.28,2.68,1.56,5.52,2.94,8.44,3.93,2.26.77,4.77.81,7.16,1.19.68.11,1.36.3,2.02.48.4.11.77.32,1.16.44,2.24.7,4.57,1.2,6.71,2.13,4.1,1.77,7.82,4.18,11,7.37,2.08,2.08,3.35,4.6,4.54,7.24,1.05,2.32,1.26,4.7,1.18,7.18-.07,1.91.03,3.83-.05,5.75-.02.51-.45,1-.7,1.5-.05.11-.18.18-.21.29-.37,1.26-.56,2.61-1.13,3.78-.66,1.36-1.53,2.66-2.52,3.8-1.46,1.7-3,3.37-4.72,4.81-1.38,1.16-3.03,2.01-4.61,2.91-1.06.61-2.19,1.09-3.3,1.61-.37.17-.78.25-1.16.41-.58.24-1.16.5-1.74.75-.19.08-.36.23-.55.25-3.02.37-5.95,1.46-9.08,1.08-1.4-.17-2.83.01-4.24-.08-.72-.05-1.43-.35-2.13-.55-.24-.07-.48-.31-.68-.28-1.86.33-3.4-.74-5.05-1.21-1.56-.45-3.08-1.25-4.45-2.14-4.56-2.96-8.83-6.25-11.12-11.42-.65-1.47-1.08-3.05-1.58-4.57-.63-1.9-.75-3.76-1.02-5.66-.32-2.31,1.21-3.44,2.77-4.45.91-.59,1.9-1.32,3.23-.94,2.02.58,3.8,2.89,4.06,4.96.4,3.21,1.27,6.19,3.59,8.78,2.9,3.23,6.51,5.09,10.38,6.65.29.12.65.1.98.1,3.12,0,6.26.16,9.37-.06,1.6-.11,3.25-.69,4.72-1.4,2.38-1.16,4.75-2.43,6.87-3.99,1.72-1.26,2.77-3.17,3.53-5.26.69-1.89.76-3.82.43-5.63-.39-2.16-1.39-4.2-2.82-5.99-2.73-3.4-6.36-5.5-10.31-6.99-1.93-.73-3.95-1.6-6.15-1.17-.2.04-.48.07-.61-.04-1.54-1.28-3.38-.89-5.14-1.02-.39-.03-.77-.25-1.14-.4-.3-.12-.59-.39-.89-.41-3.04-.18-5.6-1.72-8.19-3.04-4.09-2.08-7.63-4.9-9.92-8.98-2.11-3.75-2.81-7.7-1.67-11.99,1.21-4.5,3.79-8.01,7.33-10.85,1.54-1.24,3.3-2.22,5.06-3.14,1.15-.6,2.48-.87,3.73-1.31,1.57-.55,3.13-1.14,4.71-1.68.42-.14.9-.14,1.35-.2.18,0,.36,0,.54-.01Z"/>
  <path class="cls-1" d="m647.3,113.91c.13,0,.26,0,.39,0,2.12.03,4.24.09,6.36.09,5.66,0,11.32-.02,16.98-.03.23,0,.47,0,.7,0,.1,0,.19,0,.29,0,1.72-.23,3.17.5,4.53,1.38,2.15,1.4,2.72,4.44,1.17,6.47-.69.91-1.64,1.62-2.47,2.42-.17.03-.35.06-.52.09-.24,0-.47,0-.71,0-.1,0-.2-.01-.29-.02-9.08-.02-18.16-.04-27.24-.08-1.04,0-1.54.26-1.51,1.49.14,6.86.21,13.72.25,20.58,0,1.51-.18,3.03-.29,4.69.71,0,1.24,0,1.76,0,12.41,0,24.83.03,37.24-.03,1.9,0,3.57.59,4.73,1.86.8.88,1.23,2.4,1.22,3.63-.01,1.66-.39,3.47-2.13,4.35-.89.45-1.92.88-2.89.88-15,.06-29.99.06-44.99.04-.75,0-1.56-.23-2.25-.53-2.15-.94-2.82-2.79-2.86-4.98-.05-2.62-.15-5.25-.15-7.87-.01-18.45-.01-36.91,0-55.36,0-3.79.05-7.58.14-11.37.05-2.32,1.8-4.08,4.14-4.14,3.12-.07,6.25-.06,9.37-.06,12.16,0,24.33.12,36.49-.05,3.4-.05,5.34,3.4,4.97,5.96-.43,2.94-2.43,4.66-5.44,4.66-12.41,0-24.83,0-37.24,0-1.79,0-1.8,0-1.8,1.8,0,7.21-.03,14.41,0,21.62,0,.89-.36,1.97.75,2.57.44-.02.87-.05,1.31-.07Z"/>
  <path class="cls-1" d="m704.36,154c-.03-.5-.09-.99-.09-1.49,0-14.46,0-28.93,0-43.39,0-.29.03-.58.04-.87,0-.17.01-.34.02-.51.01-.17.03-.34.04-.5.03-.27.07-.53.1-.8.18-1.88.35-3.76.55-5.63.02-.18.12-.46.25-.5,1.22-.36,1.08-1.28.98-2.22-.02-.2,0-.43.09-.6,1.07-2.05,1.9-4.29,3.29-6.1,2.07-2.7,3.8-5.75,7.04-7.42,1.6-.83,2.94-2.14,4.51-3.05,1.13-.66,2.42-1.02,3.65-1.51.15-.06.39,0,.48-.1,1.08-1.18,2.63-.68,3.91-1.14.27-.22.54-.44.81-.66.4-.03.81-.05,1.21-.08.18,0,.36,0,.54-.01.82,0,1.64-.02,2.46-.03.1,0,.2,0,.3,0,1.42.02,2.83.02,4.25.06,1.06.03,2.18-.15,3.05.74.15.15.46.17.71.21,4.36.7,8.16,2.57,11.55,5.37.48.39,1.06.65,1.56,1.03,3.26,2.49,5.65,5.64,7.47,9.32.51,1.02.59,2.31,1.73,3.14.45.33.17,1.65.22,2.51.1-.03.2-.07.3-.1.22.49.6.98.62,1.47.06,1.87-.05,3.73.71,5.52.29.7.31,1.55.31,2.34.02,15.33.04,30.66-.02,45.99,0,2.18-.8,4.23-2.43,5.81-1,.97-3.82,1.26-5.08.72-2.28-.99-3.41-2.57-3.21-5.15.13-1.61-.02-3.25-.05-4.87,0-.09,0-.17,0-.26,0-.83,0-1.66,0-2.49,0-.17,0-.34,0-.5,0-.5,0-1,0-1.49,0-.09,0-.17,0-.26,0-.25,0-.49,0-.74,0-.09,0-.17,0-.26,0-.25,0-.49,0-.74,0-.09,0-.17,0-.26,0-.25,0-.49,0-.74,0-.09,0-.17,0-.26,0-.25,0-.49,0-.74,0-.09,0-.17,0-.26,0-.25,0-.49,0-.74,0-.09,0-.17,0-.26,0-.25,0-.49,0-.74,0-.09,0-.17,0-.26,0-.25,0-.49,0-.74,0-.09,0-.17,0-.26,0-.25,0-.49,0-.74,0-.09,0-.17,0-.26,0-.25,0-.49,0-.74,0-.09,0-.17,0-.26,0-.25,0-.49,0-.74,0-.09,0-.17,0-.26,0-.25,0-.49,0-.74,0-.09,0-.17,0-.26,0-.25,0-.49,0-.74,0-.09,0-.17,0-.26,0-.25,0-.49,0-.74,0-.09,0-.17,0-.26,0-.25,0-.49,0-.74,0-.09,0-.17,0-.26,0-.25,0-.49,0-.74,0-.09,0-.17,0-.26,0-.25,0-.49,0-.74,0-.09,0-.17,0-.26,0-.25,0-.49,0-.74,0-.09,0-.17,0-.26,0-.25,0-.49,0-.74,0-.09,0-.17,0-.26,0-.25,0-.49,0-.74,0-.09,0-.17,0-.26,0-.25,0-.49,0-.74,0-.09,0-.17,0-.26,0-.25,0-.49,0-.74,0-.09,0-.17,0-.26,0-.25,0-.49,0-.74,0-.09,0-.17,0-.26,0-.25,0-.49,0-.74,0-.09,0-.17,0-.26,0-.25,0-.49,0-.74,0-.09,0-.17,0-.26,0-.25,0-.49,0-.74,0-.09,0-.17,0-.26,0-.25,0-.49,0-.74,0-.09,0-.17,0-.26,0-1.92-.01-3.83-.02-5.75,0-.17,0-.33,0-.5,0-.17,0-.33,0-.5,0-.17,0-.33,0-.5,0-.17,0-.33,0-.5,0-.17,0-.33,0-.5,0-.17,0-.33,0-.5,0-.17,0-.33,0-.5,0-.83.02-1.66.02-2.49,0-.09,0-.17,0-.26-.26-1.36-.56-2.72-.78-4.09-.39-2.46-1.49-4.58-2.73-6.73-2.14-3.69-5.31-6.07-8.99-7.92-3.61-1.81-7.51-2.23-11.4-1.65-2.14.32-4.16,1.5-6.19,2.38-2.79,1.21-4.84,3.39-6.7,5.66-1.07,1.3-1.6,3.03-2.44,4.52-.76,1.35-.63,2.99-1.2,4.27-1.12,2.53-.73,5.06-.74,7.59-.05,14.75,0,29.5-.07,44.24,0,1.09-.32,2.52-1.05,3.19-1.34,1.22-3.02,2.26-5.07,1.72-1.66-.44-2.95-1.39-3.49-3.07-.39-1.24-.6-2.54-.88-3.81-.04-.27-.07-.53-.11-.8Z"/>
  <path class="cls-1" d="m313.96,80.14c0-.06.03-.1.09-.13.32-.16.64-.32.96-.49.67-.25,1.34-.5,2-.75.19-.07.37-.27.54-.25,1.63.23,3.05-.34,4.44-1.08.26,0,.52,0,.78,0,.15,0,.31,0,.46,0,.18,0,.36,0,.54,0,.49,0,.97-.01,1.46-.02.1,0,.2,0,.3,0,2.79.03,5.58.04,8.37.12.53.02,1.04.41,1.58.53.86.2,1.75.29,2.62.49.49.11.93.39,1.41.55.53.17,1.1.22,1.61.44,2.8,1.23,5.72,2.27,8.35,3.8,2.67,1.56,5.09,3.55,7.54,5.46,2.16,1.68,3.29,3.89,3.02,6.74-.16,1.67-.94,2.89-2.51,3.49-.54.21-1.03.56-1.58.72-.49.15-1.16.35-1.53.14-1.69-.95-3.4-1.91-4.92-3.1-3.45-2.71-7.19-4.9-11.14-6.75-4.47-2.1-9.24-2.49-14-1.94-2.82.33-5.6,1.4-8.26,2.49-2.3.95-4.55,2.19-6.55,3.67-1.99,1.47-3.87,3.22-5.37,5.18-1.78,2.32-3.24,4.92-4.58,7.54-.78,1.54-1.18,3.32-1.75,4.96-1.34,3.9-.62,7.82-.81,11.73-.03.7.33,1.43.56,2.13.73,2.19,1.32,4.45,2.27,6.55,1.98,4.37,4.75,8.25,8.5,11.24,2.94,2.35,6.19,4.23,9.79,5.59,4.62,1.75,9.31,1.99,14.11,1.81.34-.01.69-.24,1.02-.39.38-.17.74-.5,1.11-.52,4.75-.22,8.46-2.93,12.32-5.19,1.51-.88,2.72-2.32,3.92-3.64,1.95-2.14,4.45-2.25,6.97-1.9.76.11,1.66,1.11,1.98,1.9.44,1.09.6,2.4.53,3.59-.27,4.08-3.25,6.08-6.35,7.99-1.3.8-2.48,1.78-3.76,2.6-2.29,1.46-4.61,2.84-7.35,3.42-1.39.3-2.64,1.17-3.98,1.74-.36.15-.8.12-1.21.19-1.13.2-2.27.41-3.4.61-.65.12-1.31.31-1.96.32-2.62.04-5.25.06-7.87-.01-.76-.02-1.51-.36-2.26-.57-.28-.08-.54-.23-.82-.29-2-.39-4.02-.71-6.02-1.15-.91-.2-1.79-.59-2.64-.99-4.95-2.33-9.73-4.94-13.47-9.04-1.84-2.01-3.46-4.22-5.13-6.37-1.56-2.01-2.69-4.26-3.59-6.65-.38-1-1.06-1.88-1.53-2.86-.19-.39-.12-.9-.26-1.33-.19-.59-.47-1.15-.7-1.73-.13-.33-.3-.67-.33-1.01-.11-1.33.35-2.75-.84-3.87-.21-.19-.13-.72-.14-1.09-.03-3.62-.05-7.25-.07-10.87,0-.25-.06-.58.07-.73,1.04-1.23.71-2.68.73-4.09,0-.29.13-.79.3-.84,1.13-.35.96-1.2.92-2.04-.01-.28,0-.6.13-.84.55-1.07,1.21-2.09,1.7-3.18,1.59-3.53,3.65-6.7,6.03-9.79,2.19-2.84,5.09-4.76,7.56-7.21.81-.8,2.04-1.18,3.07-1.76.23.02.51.12.68.03,1.01-.52,1.98-1.11,2.98-1.63,1.1-.58,2.22-1.11,3.33-1.66Z"/>
  <path class="cls-1" d="m826.82,79.48c.15.02.29.03.44.05.32.41.98.97.88,1.2-.22.51-.81,1.18-1.27,1.19-1.67.03-1.66,1.16-1.59,2.23.11,1.87,1.02,3.45,2.15,4.89.6.77,1.26,1.48.51,2.5-1.99-1.08-4.14-1.81-6.2-2.69-3.73-1.58-7.49-.96-11.12-.66-3.7.3-7.34,1.81-10.24,4.41-1.59,1.42-2.83,3.13-3.19,5.36-.36,2.24.86,3.75,2.28,5.09,2.55,2.4,5.6,3.98,8.94,5.01,1.95.6,3.89,1.24,5.84,1.82.43.13.91.11,1.36.12,1,.02,2.07-.21,2.99.08,5.78,1.81,11.54,3.54,16.44,7.5,3.49,2.82,5.97,6.17,7.79,10.13.52,1.12.83,2.34,1.23,3.52.07.17.14.35.21.52.02.08.03.15.05.23.03.53.06,1.05.09,1.58,0,.14,0,.28.01.42-.02,1.28-.03,2.55-.05,3.83-.02.31-.03.62-.05.93-.1.43-.2.86-.31,1.29-.25.97-.51,1.94-.76,2.92-.05.2.04.49-.07.6-1.58,1.62-1.31,4.34-3.35,5.68-2.09,4.3-5.96,6.59-9.94,8.71-1.87,1-3.82,1.92-5.84,2.57-1.93.62-3.97,1.02-5.99,1.21-2.27.2-4.58.14-6.87.02-1.21-.06-2.4-.47-3.59-.73-.24-.05-.48-.16-.72-.2-4.82-.7-8.96-2.88-12.6-6-2.04-1.75-3.99-3.66-5.67-5.75-1.16-1.44-2.01-3.23-2.6-5-.79-2.33-1.27-4.78-1.73-7.21-.32-1.71.58-3.22,1.28-4.7.17-.36.81-.5,1.24-.73.64-.34,1.28-.66,1.92-.99.93,1.13,2.09,1.8,3.6,1.78,1.32.69,2.02,1.69,1.98,3.26-.13,5.03,2.22,8.72,6.26,11.52,1.93,1.34,4.01,2.24,6.13,3.2,1.61.73,3.08.76,4.65.78,3.12.05,6.25.02,9.37.02-.03-.12-.06-.24-.09-.37.56-.21,1.11-.51,1.69-.61.73-.12,1.39.07,1.98-.79.42-.62,1.58-.7,2.34-1.14,2.66-1.5,4.82-3.63,6.22-6.27,2.3-4.32,1.45-8.54-1.09-12.56-1.09-1.73-2.55-2.9-4.25-4.04-1.94-1.3-3.83-2.58-6.05-3.28-1.98-.62-3.86-1.71-6.07-1.46-.43.05-.95,0-1.31-.21-1.29-.76-2.66-.77-4.09-.81-.86-.02-1.7-.4-2.55-.64-.2-.05-.38-.21-.58-.24-2.87-.43-5.49-1.59-8.01-2.94-3.92-2.09-7.06-5.05-9.58-8.71-2.32-3.38-2.78-7.16-2.52-11.11.02-.28.13-.55.21-.82,1.53-5.04,4.83-8.77,8.82-12,.81-.28,1.64-.5,2.42-.85,2.61-1.18,5.2-2.41,7.79-3.63.75-.34,1.5-.69,2.25-1.03.09,0,.17-.02.26-.02.32-.01.65-.03.97-.04.1,0,.19,0,.29,0,.82,0,1.64-.02,2.45-.03.1,0,.2,0,.3,0,2.82.03,5.64.03,8.45.12.56.02,1.12.39,1.68.59.41.15.86.45,1.25.39,1.04-.14,1.86.21,2.62.84.1.05.2.09.3.14Z"/>
  <path class="cls-1" d="m901.06,130.25c-.02,8.58-.04,17.15-.06,25.73,0,1.66-.64,3.04-1.7,4.3-1.35,1.6-3.08,1.8-4.87,1.25-1.83-.56-3.23-1.71-3.49-3.8-.09-.7-.19-1.4-.19-2.11-.03-8.12-.05-16.24-.06-24.35,0-.1.01-.19.02-.29.3-1.67-.42-2.81-1.56-4.06-1.95-2.13-3.55-4.59-5.33-6.88-1.58-2.03-3.22-4.01-4.81-6.03-1.69-2.15-3.36-4.33-5.04-6.49-1.27-1.64-2.54-3.28-3.84-4.9-1.68-2.1-3.42-4.15-5.06-6.29-1.65-2.16-3.2-4.41-4.81-6.6-.52-.7-1.05-1.41-1.68-2-2.06-1.93-2.62-4.32-2.29-7.01.15-1.25,2.1-3.01,3.46-3.21,2.72-.4,4.75.45,6.45,2.75,3.09,4.17,6.48,8.11,9.65,12.22,1.72,2.22,3.18,4.64,4.87,6.89,1.51,2.02,3.16,3.94,4.75,5.91.18.23.43.4.61.63,1.51,2.01,3.01,4.03,4.53,6.03.55.73,1.17,1.41,1.72,2.13.73.95,1.52,1.88,2.12,2.91.51.88,1.15,1.06,1.8.44,1.13-1.09,2.13-2.31,3.16-3.49.3-.34.51-.76.78-1.12,1.08-1.4,2.16-2.82,3.28-4.2,1.82-2.25,3.72-4.44,5.5-6.72,1.92-2.46,3.75-4.99,5.62-7.49.05-.07.09-.14.14-.21,1.97-2.35,3.97-4.68,5.89-7.07,1.84-2.29,3.71-4.57,5.35-7,2.19-3.26,6.01-3.83,8.69-1.12,1.15,1.16,1.58,4.74.75,6.24-.22.4-.43.82-.7,1.18-1.55,2-3.08,4-4.68,5.96-1.87,2.3-3.83,4.52-5.68,6.83-2.38,2.97-4.71,5.98-7.03,8.99-1.65,2.13-3.22,4.32-4.9,6.42-1.66,2.08-3.44,4.05-5.12,6.12-1.68,2.06-3.32,4.16-4.91,6.29-.49.65-.77,1.45-1.15,2.19-.06.34-.11.69-.17,1.03Z"/>
  <path class="cls-1" d="m486.32,107.81c0,.38.01.75.02,1.13-.03.41-.09.83-.09,1.24,0,14.46,0,28.91,0,43.37,0,1.25.02,2.5.03,3.74-.53,1.69-1.56,3.05-3.05,3.97-1.32.81-2.85.76-4.19.12-1.66-.79-3.02-2-3.04-4.06-.03-4.16-.01-8.33-.01-12.5,0-12.58.07-25.16-.04-37.74-.04-4.46,1.17-8.5,3.05-12.44,2.27-4.78,5.78-8.5,9.91-11.7.62-.15,1.29-.21,1.86-.48,1.9-.9,3.77-1.85,5.64-2.83.27-.14.42-.52.62-.8.59-.13,1.2-.2,1.77-.4.75-.27,1.47-.63,2.2-.96.17-.01.35-.02.52-.03.24,0,.48-.01.71-.02.18,0,.36,0,.54,0,.49,0,.98-.01,1.46-.02.43,0,.86,0,1.28,0,1.57.01,3.14.03,4.71.04.09,0,.19.01.28.02.9.05,1.85-.04,2.47.86.06.09.21.13.33.16,1.54.37,3.15.56,4.62,1.13,1.6.62,3.06,1.57,4.58,2.38-.23.21-.52.38-.69.63-1.04,1.58-2,3.22-3.11,4.74-.6.82-.57,1.52-.12,2.28.32.53.72,1,1.07,1.52.45.67.84,1.36.3,2.18-1.94-1.25-3.79-2.69-5.85-3.68-1.85-.89-3.78-1.85-5.97-1.66-.29.03-.58.02-.87,0-5.87-.41-10.76,1.99-14.83,5.82-2.42,2.28-4.69,4.96-5.41,8.49-.14.67-.5,1.29-.76,1.93,0,.1.02.19.03.29,0,.97.02,1.94.03,2.92,0,.12,0,.24,0,.36Z"/>
  <path class="cls-1" d="m537.23,158.23c-.93,1-1.8,2.07-2.82,2.96-1.08.94-3.63.77-4.77-.13-1.79-1.42-2.72-3.07-2.7-5.54.11-15.25,0-30.49.09-45.74.03-4.65-1.29-8.82-3.56-12.78.37.02.79-.07,1.11.07,2.18.98,3.8.33,5.42-1.34.9-.93,2.34-1.35,3.54-2,.5.83,1.12,1.6,1.48,2.49.58,1.43,1,2.93,1.45,4.41.31,1.02.54,2.06.81,3.1-.01.17-.04.33-.04.5,0,16.65.02,33.3.04,49.95,0,.36.1.73.15,1.09,0,.23,0,.47,0,.7-.01.53-.03,1.06-.04,1.59-.01.13-.03.26-.04.39-.03.09-.06.18-.08.28Z"/>
  <path class="cls-1" d="m966.01,79.28c.65-.26,1.29-.53,1.95-.77,1-.37,2.02-.72,3.03-1.07.26,0,.52,0,.78,0,3.04,0,6.08-.03,9.12.03,1.45.03,2.88-.13,4.31.73,1.23.73,2.84.77,4.24,1.24,6.97,2.37,12.44,6.5,15.22,13.53.94,2.37,1.18,4.93.66,7.48-.35,1.73-2.16,3.49-3.51,3.57-3.27.18-4.79-.73-5.76-3.25-.52-1.35-.65-2.84-1.11-4.21-.26-.79-.72-1.57-1.27-2.2-2.01-2.28-4.47-4.08-7.34-4.96-2.04-.62-4.02-1.66-6.33-1.43-2.23.22-4.49,0-6.74.08-.74.03-1.47.43-2.19.67-.19.06-.34.25-.53.28-3.25.46-5.84,2.1-8.24,4.28-2.7,2.45-3.08,6.55-1.06,9.25-.25-.02-.61.05-.72-.09-.77-.94-1.62-.76-2.54-.3-.16.08-.4.05-.6.05-2.54.02-4.91.45-6.62,2.58-.83-.95-1.13-2.05-1.11-3.3.01-1.07-.03-2.16-.15-3.23-.38-3.26.89-6.03,2.52-8.69.15.76.3,1.52.44,2.28.12.69.18,1.4.34,2.09.22.93.77,1.86.69,2.75-.09,1.08-.02,1.57,1.13,1.57.94,0,1.91-.11,2.82-.35,1.29-.35,2.57-2.3,2.57-3.66,0-3.75,0-7.49-.01-11.24.95-.66,1.86-1.36,2.84-1.96,1.03-.63,2.12-1.16,3.18-1.73Z"/>
  <path class="cls-1" d="m992.57,145.77c.7-.87,1.44-1.72,2.09-2.63,3.33-4.66,2.21-11.77-1.74-15.2-1.94-1.68-3.58-3.74-6.05-4.72-1.66-.65-3.57-.91-4.99-1.89-2.14-1.48-4.72-.22-6.87-1.6-.85-.54-2.27-.13-3.42-.28-.6-.08-1.16-.41-1.73-.64-.15-.06-.27-.21-.43-.25-1.41-.36-2.89-.57-4.24-1.1-1.71-.68-3.32-1.62-4.98-2.45,1.25,0,2.5-.09,3.74.01,1.11.1,1.65-.49,1.92-1.36.55-1.75.35-3.52-.31-5.18-.42-1.05-.94-2-.58-3.16,1.58.82,3.14,1.66,4.73,2.45.32.16.73.1,1.08.22.45.16.86.43,1.31.59.49.17,1.01.28,1.52.4.91.22,1.82.43,2.74.64.48.11.97.36,1.44.33,3.03-.18,5.82.79,8.56,1.82,2.63.99,5.25,2.11,7.69,3.49,6.69,3.81,11.14,9.29,12.49,17.11.99,5.72-1.15,13.92-5.03,18.13-1.08-1.18-2.02-2.54-3.71-2.99-.51-.14-1.11-.3-1.45-.66-1.07-1.13-2.37-1.23-3.77-1.11Z"/>
  <path class="cls-1" d="m987,160c-.29.22-.56.6-.86.62-2.75.23-5.32,1.55-8.18,1.18-1.51-.2-3.08.05-4.61-.08-1-.08-1.97-.46-2.96-.71-.2-.05-.38-.2-.58-.21-3.84-.17-7.14-2-10.27-3.87-2.96-1.77-5.88-3.79-7.66-6.98-.82-1.48-1.95-2.78-2.81-4.25-.52-.9-.9-1.92-1.15-2.93-.54-2.18-1.1-4.37-1.38-6.59-.26-2.06,1.06-3.51,2.63-4.61.74-.52,1.65-.79,2.49-1.15.17-.08.43-.14.58-.07,2.05,1.05,4.18,2.02,4.46,4.75.05.54.26,1.06.28,1.59.11,4.43,2.55,7.55,5.81,10.12,1.47,1.16,3.2,2.01,4.84,2.95.33.19.81.11,1.19.23.45.15.85.42,1.29.59.41.16.84.38,1.26.38,3.58.03,7.16.02,10.74.01.25,0,.51,0,.74-.08,1.3-.48,2.59-.99,3.88-1.49-.37.52-.64,1.23-1.14,1.53-.58.34-.95.64-.83,1.31.27,1.48.53,2.97.85,4.44.14.64.39,1.26.64,1.86.21.49.49.96.74,1.43Z"/>
  <path class="cls-1" d="m827.93,91.53c.76-1.02.1-1.73-.51-2.5-1.13-1.44-2.04-3.02-2.15-4.89-.06-1.06-.07-2.19,1.59-2.23.45,0,1.05-.69,1.27-1.19.1-.23-.56-.79-.88-1.2,1.89.88,3.94,1.54,5.65,2.7,2.22,1.5,4.3,3.28,6.2,5.18,1.04,1.04,1.64,2.55,2.32,3.9.66,1.31,1.15,2.7,1.75,4.04,1.17,2.61-.66,7.3-3.31,8.44-1.7.74-4.65-.16-5.67-1.72-.67-1.03-1.17-2.06-1.32-3.38-.27-2.38-1.59-4.32-3.44-5.87-.51-.43-1-.86-1.5-1.29Z"/>
  <path class="cls-1" d="m383.42,145.78c.89-.04,1.37-.69,1.27-1.39-.34-2.25,1.12-3.08,2.79-3.58,1.44-.43,2.54-1.21,3.48-2.3,1.34,1.38,2.68,2.75,4.02,4.13-1.03.44-1.06,1.98,0,2.82.81.64,1.67,1.2,2.52,1.8,1.05.73,2.23.86,3.45.75.85-.07,1.32.16,1.34,1.15,0,.42.4.88.72,1.22,1.57,1.66,1.16,4.02-.8,5.2-1.03.62-2.17,1.3-2.25,2.77-6.52-2.54-11.84-6.68-16.22-12.09-.06-.08-.13-.16-.19-.24-.05-.08-.09-.16-.14-.23Z"/>
  <path class="cls-1" d="m987,160c-.25-.48-.54-.94-.74-1.43-.25-.61-.5-1.22-.64-1.86-.32-1.47-.59-2.95-.85-4.44-.12-.67.25-.97.83-1.31.51-.3.77-1,1.14-1.53,1.42-.81,2.84-1.62,4.27-2.43.25-.18.5-.35.75-.53.28-.23.56-.47.84-.7,1.4-.12,2.7-.02,3.77,1.11.34.36.94.52,1.45.66,1.69.45,2.63,1.81,3.71,2.99-1.87,3.1-4.81,5.01-7.83,6.72-2.08,1.18-4.45,1.86-6.68,2.76Z"/>
  <path class="cls-1" d="m169.02,105c.24-.28.69-.55.7-.83.02-2,1.32-3.44,2.15-5.07.49-.95,1.51-.95,2.43-.83.99.13,1.75.62,2.21,1.59.17.37.57.67.94.9.66.41,1.41.67,2.03,1.12.65.46,1.17.6,1.69-.11.1.79-.08,1.43-.56,2.16-.57.86-.63,2.05-1.07,3.02-1.67,3.7-3.75,7.14-6.78,9.92-.37.34-.92.55-1.42.65-.89.18-1.38-.14-1.38-1.18,0-2.78-.04-5.57-.2-8.35-.06-1.01-.48-1.99-.74-2.99Z"/>
  <path class="cls-1" d="m965,105.33c-.36,1.16.16,2.11.58,3.16.66,1.65.87,3.43.31,5.18-.28.87-.81,1.46-1.92,1.36-1.24-.11-2.49-.02-3.74-.01-4.01-2.35-7.14-5.58-9.37-9.66-.09-.17-.08-.4-.11-.6,1.71-2.13,4.09-2.57,6.62-2.58.2,0,.43.03.6-.05.92-.47,1.77-.65,2.54.3.11.14.47.06.72.09,0,0,.02.02.02.02.07.08.14.15.21.23,1.18.86,2.36,1.71,3.55,2.57Z"/>
  <path class="cls-1" d="m533.53,93.74c-1.2.65-2.64,1.07-3.54,2-1.62,1.67-3.24,2.33-5.42,1.34-.32-.14-.74-.05-1.11-.07-1.17-1.22-2.34-2.45-3.51-3.67.54-.81.16-1.5-.3-2.18-.35-.51-.75-.99-1.07-1.52-.46-.77-.48-1.47.12-2.28,1.12-1.52,2.07-3.17,3.11-4.74.17-.25.46-.42.69-.63.67.44,1.34.88,2,1.32.09.06.18.12.27.18.08.06.17.11.25.16.04.04.08.08.13.11,2.65,2.14,5.45,4.15,6.85,7.45.08.1.16.19.25.29,0,0,0,0,0,0,.13.18.25.35.38.53.07.02.1.06.1.13-.15.26-.29.51-.44.77.32.11.65.21.97.32.09.17.17.33.26.5Z"/>
  <path class="cls-1" d="m959.99,82.97c0,3.75,0,7.49.01,11.24,0,1.36-1.29,3.31-2.57,3.66-.91.25-1.88.35-2.82.35-1.15,0-1.22-.49-1.13-1.57.07-.89-.48-1.82-.69-2.75-.16-.68-.22-1.39-.34-2.09-.13-.76-.29-1.52-.44-2.28,1.5-1.68,2.99-3.36,4.49-5.05.09-.07.18-.14.27-.21.14-.11.27-.22.41-.32.19-.16.38-.31.57-.47,0,0,0,0,0,0,.18-.14.36-.28.55-.42,0,0,.04-.04.04-.04.55-.02,1.11-.05,1.66-.07Z"/>
  <path class="cls-1" d="m44.38,129.47c3.15,0,4.63,1.51,4.62,4.69,0,2.59-2.07,4.86-4.37,4.83-2.3-.03-5.4-2.85-5.39-4.91.01-2.66,2.2-4.62,5.14-4.61Z"/>
  <path class="cls-1" d="m205.25,131.32c1.11.71,2.42,1.38,3.53,2.28,1.42,1.15,1.63,3.87.6,5.41-1.5,2.25-5.53,2.8-7.6,1.04-1.38-1.17-1.81-3.59-.93-5.21.22-.4.38-.83.58-1.24.32-.66.7-1.07,1.57-1.17.73-.08,1.4-.67,2.26-1.11Z"/>
  <path class="cls-1" d="m67.26,166.48c1.57-.05,2.95.44,4.08,1.55,1.09,1.06,1.62,3.74,1.02,4.98-.84,1.72-3.4,3.52-4.88,3.17-1.83-.43-3.51-1.37-4.18-3.21-.67-1.81-.61-3.69,1-5.17.09-.07.18-.14.26-.21,0,0,.03-.03.03-.03.89-.36,1.78-.72,2.67-1.08Z"/>
  <path class="cls-1" d="m116.5,195.29c0,3.06-1.81,4.84-4.8,4.71-1.73-.08-2.84-1.24-3.59-2.57-1.99-3.56.85-6.67,4.09-7.31,1.72-.34,4.31,2.16,4.3,3.93,0,.42,0,.83,0,1.25Z"/>
  <path class="cls-1" d="m194.87,73.51c2.92.03,5.18,2.05,5.12,4.58-.06,2.47-2.2,4.37-4.95,4.39-2.72.02-4.65-2.06-4.65-5,0-2.26,1.96-3.99,4.47-3.96Z"/>
  <path class="cls-1" d="m46.03,81.74c1.48.48,2.19,1.73,2.71,3.01.27.67.31,1.6.07,2.28-.72,2.06-2.35,3.37-4.39,3.85-.77.18-1.88-.47-2.65-1.02-1.53-1.08-3.02-2.34-2.49-4.54.19-.8.7-1.53,1.07-2.29.4-.07.99,0,1.17-.25,1.06-1.43,2.59-1.27,4.06-1.32.07-.02.13,0,.18.04.09.08.19.16.28.24Z"/>
  <path class="cls-1" d="m170.99,180.47c2.21-.31,4.73,2.13,4.55,5.22-.09,1.59-2.93,4.19-4.76,4.26-1.87.07-4.76-2.84-4.78-4.77-.03-2.37,2.47-4.73,4.99-4.72Z"/>
  <path class="cls-1" d="m48.99,145c.03,1.85-2.99,4.92-4.84,4.92-1.52,0-5-3.44-4.7-4.89.23-1.13.76-2.35,1.54-3.16.78-.82,1.98-1.48,3.09-1.68,1.68-.31,4.89,3.03,4.91,4.82Z"/>
  <path class="cls-1" d="m62.58,51.98c-3.73.08-4.8-1.71-5.01-4.29-.22-2.81,2.36-4.64,4.35-4.67,1.96-.03,4.81,2.79,4.78,4.73,0,.4-.26.83-.47,1.2-.9,1.56-1.42,3.64-3.65,3.03Z"/>
  <path class="cls-1" d="m213.74,126.4c.03,2.45-1.91,4.71-4.14,4.61-1.59-.07-4.61-2.22-4.61-4.29,0-2.1,2.7-5.23,4.64-5.03,1.08.11,2.34.63,3.06,1.4.74.79.93,2.1,1.36,3.19-.1.04-.21.08-.31.13Z"/>
  <path class="cls-1" d="m126.55,199.48c.03,2.62-1.64,4.3-3.99,4.56-2.55.28-4.6-2.51-4.58-4.42.02-2.41,2.16-4.6,4.63-4.61,2.17,0,3.9,1.96,3.94,4.48Z"/>
  <path class="cls-1" d="m73.09,185c-2.82,0-4.34-1.48-4.35-4.25-.01-2.71,1.69-4.28,4.65-4.29,2.28,0,3.98,1.79,3.95,4.19-.03,3.01-1.34,4.36-4.25,4.35Z"/>
  <path class="cls-1" d="m38.55,100c-2.56-.01-4.32-2.12-4.3-5.14,0-1.81,2.31-3.86,4.33-3.85,1.85,0,4.37,2.64,4.19,4.58-.16,1.75-2.11,4.53-4.21,4.42Z"/>
  <path class="cls-1" d="m195,67.81c0,2.54-1.26,4.05-3.73,4.44-.19.03-.45.03-.6-.07-1.09-.75-2.28-1.4-3.19-2.33-1.25-1.28-1.35-2.82-.56-3.98,1.27-1.87,3.19-2.8,4.84-2.36,2.75.74,3.25,1.41,3.25,4.31Z"/>
  <path class="cls-1" d="m181.06,185c-2.56,0-4.27-1.57-4.29-3.94-.02-2.41,2.05-4.67,4.28-4.5,2.43.18,4.24,1.95,4.26,3.98.02,2.47-1.74,4.95-4.25,4.46Z"/>
  <path class="cls-1" d="m75.5,189.48c0-2.28,1.97-4.22,4.26-4.2,1.82.02,4.14,2.54,4.01,4.59-.13,2.05-1.61,4.12-4.02,4.12-2.4,0-4.25-1.98-4.25-4.52Z"/>
  <path class="cls-1" d="m41.25,155.97c-.02-2.03,1.75-3.95,3.64-3.97,2.81-.03,4.88,1.72,4.87,4.09-.01,2.1-2.19,4.12-4.47,4.06-2.18-.06-4.28-2.02-4.04-4.18Z"/>
  <path class="cls-1" d="m133.02,206.85c-2.51.04-3.93-2.28-4.25-4.42-.22-1.49,2.5-3.92,4.21-3.95,1.82-.03,4.15,2.07,4.17,3.76.02,2.41-1.92,4.58-4.13,4.61Z"/>
  <path class="cls-1" d="m190.68,179.8c-1.78-.03-4.32-2.36-4.15-3.98.23-2.17,1.48-3.98,3.97-4.04,2.46-.06,4.51,1.91,4.5,4.23,0,1.72-2.41,3.83-4.32,3.8Z"/>
  <path class="cls-1" d="m212.58,111.98c2.33-.02,4.12,1.54,4.16,3.62.04,2.51-1.41,4-3.95,4.04-2.61.04-4.27-1.51-4.26-4,0-2.35,1.43-3.63,4.06-3.66Z"/>
  <path class="cls-1" d="m185.53,54c2.47,0,4.28,1.78,4.24,4.15-.04,2.23-1.9,3.85-4.42,3.85-2.03,0-3.84-2.18-3.81-4.6.02-1.63,2.1-3.4,3.98-3.4Z"/>
  <path class="cls-1" d="m56.85,53.91c-.17,3.47-.97,4.14-3.88,4.1-2.44-.04-3.97-1.4-3.97-3.56,0-2.18,1.83-4.16,3.92-4.25,2.12-.08,3.94,1.64,3.93,3.71Z"/>
  <path class="cls-1" d="m83.48,197.78c-.02-2.67,1.03-3.76,3.64-3.78,2.58-.02,3.87,1.26,3.89,3.84,0,1.99-1.9,4.07-3.74,4.07-1.77,0-3.77-2.18-3.79-4.13Z"/>
  <path class="cls-1" d="m217.79,105.25c.5,1.7-.75,2.67-2.26,3.31-1.34.57-2.77.3-3.87-.64-.54-.46-.66-1.39-1.1-2.02-.55-.79-.11-1.34.09-2.11.43-1.64,1.27-2.57,2.88-2.77,2.59-.32,4.24,1.24,4.26,4.23Z"/>
  <path class="cls-1" d="m140.28,204.28c0-2.32,1.44-3.9,3.6-3.94,1.57-.03,4.14,2.32,4.12,3.76-.02,1.76-2.13,3.85-3.89,3.85-2.96,0-3.82-.82-3.83-3.67Z"/>
  <path class="cls-1" d="m34.06,102c2.01,0,3.9,1.8,3.92,3.74.02,1.65-2.2,3.99-3.81,4.01-1.82.03-3.81-2.08-3.81-4.05,0-2.59,1.11-3.7,3.69-3.71Z"/>
  <path class="cls-1" d="m179.23,53c-2.22,0-3.74-1.66-3.73-4.05.01-1.93,1.84-3.94,3.59-3.94,1.73,0,3.77,2.3,3.71,4.19-.07,2.26-1.52,3.81-3.58,3.8Z"/>
  <path class="cls-1" d="m48.2,170.47c-2.06-.07-4.02-1.92-3.98-3.76.04-1.8,2.11-3.97,3.83-3.69,1.94.31,4.11,1.49,3.95,4.15-.09,1.57-2.11,3.35-3.81,3.3Z"/>
  <path class="cls-1" d="m196,169.27c-.35-2.06,1.44-3.67,3.57-3.58,2.02.09,4.2,1.77,4.25,3.42.05,1.58-2.54,3.99-4.22,3.94-2.08-.07-3.61-1.67-3.61-3.77Z"/>
  <path class="cls-1" d="m95.71,208.08c-2.18-.02-3.75-1.62-3.71-3.77.03-1.44,2.34-3.32,4.07-3.3,2.01.01,3.43,1.53,3.43,3.66,0,1.8-1.82,3.44-3.79,3.41Z"/>
  <path class="cls-1" d="m155,207.95c-2,0-3.76-1.62-3.78-3.47-.02-1.84,1.77-3.49,3.77-3.49,1.82,0,3.82,1.96,3.8,3.73-.02,1.5-2.04,3.23-3.79,3.23Z"/>
  <path class="cls-1" d="m174.5,41.05c0,2.07-1.42,3.92-3.04,3.95-1.74.04-3.47-2.07-3.48-4.22,0-1.57,1.79-3.36,3.37-3.36,1.72,0,3.15,1.65,3.15,3.63Z"/>
  <path class="cls-1" d="m217.49,94.04c.01.86.35,2.21-1.38,2.78-1.42.47-3.8.19-4.52-.63-1.01-1.17-.9-2.69-.43-3.78.48-1.11,1.47-2.38,3.16-2.16.57.07,1.16.05,1.71.18,1.83.44,1.45,1.92,1.45,3.61Z"/>
  <path class="cls-1" d="m210.75,161.23c.17,3.47-.76,3.31-3.23,3.48-2.26.15-3.54-1.21-3.53-3.4.01-1.44,1.97-3.3,3.48-3.31,2.34,0,3.26.91,3.27,3.23Z"/>
  <path class="cls-1" d="m49,177.09c0-1.94,1.48-3.58,3.22-3.57,1.47.01,3.69,2.03,3.46,3.47-.16.98-.82,2.07-1.6,2.7-.63.51-1.76.5-2.67.54-1.61.07-2.41-1.03-2.41-3.15Z"/>
  <path class="cls-1" d="m31.01,119.5c-2.46-.02-3.37-1-3.52-3.27-.1-1.49,2.23-3.38,3.47-3.33,1.67.07,3.18,1.76,3.16,3.66-.03,2.2-.84,2.97-3.11,2.95Z"/>
  <path class="cls-1" d="m101.99,210.17c.01-1.41,1.93-3.19,3.41-3.17,1.48.02,3.55,1.97,3.5,3.31-.05,1.37-2.06,3.35-3.38,3.32-1.79-.04-3.55-1.76-3.53-3.47Z"/>
  <path class="cls-1" d="m48,61.75c0,2.11-1.14,3.21-3.27,3.17-1.77-.04-3.56-1.6-3.53-3.07.03-1.54,1.95-3.18,3.68-3.16,1.98.03,3.13,1.16,3.13,3.06Z"/>
  <path class="cls-1" d="m169.39,203.11c-.29.78-.57,1.35-.72,1.95-.29,1.19-2.44,2.12-3.47,1.46-.45-.29-.92-.56-1.36-.87-.86-.62-1.32-3.67-.59-4.43,1.42-1.48,3.86-2.01,5.24.33.33.56.65,1.14.89,1.57Z"/>
  <path class="cls-1" d="m212.22,149.84c1.32.13,2.67.15,3.95.44.94.21,1.56.92,1.34,2.05-.04.2,0,.42,0,.62-.05.88.37,2.05-.72,2.43-1.18.4-2.52.67-3.72.5-.61-.08-1.05-1.26-1.61-1.92-.7-.83-.58-1.5.19-2.26.33-.33.34-.99.5-1.5.02-.12.05-.25.07-.37Z"/>
  <path class="cls-1" d="m213.32,86c-1.46,0-3.35-1.88-3.32-3.3.02-1.26,1.94-3.23,3.16-3.25,1.38-.02,3.59,2.09,3.6,3.44,0,1.13-2.18,3.12-3.44,3.11Z"/>
  <path class="cls-1" d="m165.75,34.41c.01,1.8-.99,2.66-3.1,2.69-1.97.02-3.16-1.11-3.15-3,.01-1.66,1.25-2.93,2.89-2.96,2.41-.04,3.35.87,3.36,3.27Z"/>
  <path class="cls-1" d="m55.1,184.65c.39-.14.8-.32,1.22-.44.61-.18.98-.9,1.88-.42,1.17.63,2.38,1.22,2.56,2.62.09.65-.3,1.51-.74,2.07-1.37,1.72-3.11,1.95-4.67.45-.52-.5-.48-1.67-.54-2.54-.04-.55.18-1.13.29-1.73Z"/>
  <path class="cls-1" d="m223.64,143c-.5,1.05-.92,1.91-1.44,2.99-.9,0-2.05.04-3.19-.01-.68-.03-1.78-1.89-1.61-2.78.24-1.26.76-2.46,2.05-2.91,1.22-.43,2.14.31,2.9,1.21.45.54.92,1.07,1.29,1.5Z"/>
  <path class="cls-1" d="m152.7,31.25c-1.38,0-2.68-1.27-2.7-2.64-.02-1.18,1.94-3.11,3.15-3.1,1.78,0,2.87,1.23,2.86,3.2-.01,1.8-.98,2.55-3.3,2.54Z"/>
  <path class="cls-1" d="m207.77,72.38c.07-2.43.59-3.06,2.77-3.17,1.38-.07,3.11,1.35,3.21,2.64.09,1.13-1.72,3.13-2.98,3.09-.76-.02-1.64-.24-2.21-.7-.46-.37-.54-1.22-.78-1.86Z"/>
  <path class="cls-1" d="m29.5,124.51c1.77-.32,2.64,1.24,2.66,2.4.04,1.83-1.07,3.06-2.81,3.1-2.07.06-2.8-.67-2.84-2.83-.03-1.73.97-2.63,2.98-2.67Z"/>
  <path class="cls-1" d="m115.52,217.55c-1.87,0-2.52-.78-2.52-2.98,0-1.85.72-2.59,2.5-2.58,1.88.01,3.16,1.22,3.11,2.93-.04,1.53-1.33,2.63-3.09,2.62Z"/>
  <path class="cls-1" d="m179.25,200.87c0,1.62-.97,2.76-2.37,2.78-1.09.02-3.13-2.03-3.14-3.13,0-1.36,1.36-2.53,2.94-2.53,1.96,0,2.58.7,2.57,2.89Z"/>
  <path class="cls-1" d="m224.8,130.34c1.06,0,2.69,1.66,2.7,2.75,0,.8-2.08,3.06-2.85,3.07-.76.01-2.85-2.15-2.82-2.93.03-.85,2.12-2.89,2.97-2.89Z"/>
  <path class="cls-1" d="m204,61.36c0-1.14,1.3-2.33,2.5-2.29,1.47.05,2.5,1.14,2.5,2.65,0,1.9-.83,2.84-2.52,2.81-1.64-.02-2.49-1.12-2.49-3.17Z"/>
  <path class="cls-1" d="m37.55,72.49c-1.95-.02-2.76-.77-2.78-2.57-.02-1.45,1.08-2.42,2.73-2.4,1.55.01,2.51,1.01,2.5,2.61-.01,1.74-.67,2.38-2.45,2.36Z"/>
  <path class="cls-1" d="m143.29,26.51c-1.59,0-3.03-1.08-3.05-2.32-.03-1.26,1.43-2.46,3.01-2.48,1.32-.01,2.56,1.18,2.55,2.45-.01,1.33-1.08,2.33-2.51,2.34Z"/>
  <path class="cls-1" d="m128.61,217.77c-.06,1.46-1.18,2.74-2.38,2.72-1.34-.03-2.49-1.32-2.46-2.78.03-1.28,1.3-2.44,2.67-2.42,1.31.02,2.23,1.07,2.17,2.48Z"/>
  <path class="cls-1" d="m188.9,194.25c.43,1.64.85,3.21-.4,4.54-.54.58-2.42.2-3.25-.46-.99-.8-.98-1.89-.54-2.83.89-1.91,2.69-1.09,4.19-1.26Z"/>
  <path class="cls-1" d="m63.69,198c-1.51-.02-1.83-.47-1.77-2.54.04-1.34,1.01-2.34,2.25-2.31,1.47.03,2.53,1.09,2.52,2.51-.01,1.55-1.05,2.36-3,2.33Z"/>
  <path class="cls-1" d="m31,138.24c0,1.57-.99,2.76-2.28,2.75-1.24,0-2.23-1.38-2.23-3.06,0-1.33.71-2.02,2.05-2.02,1.61,0,2.46.81,2.45,2.33Z"/>
  <path class="cls-1" d="m199,191.27c-.01,1.22-1.11,2.11-2.55,2.08-1-.02-2.35-1.36-2.3-2.29.05-.92,1.34-1.99,2.39-2,1.74,0,2.47.65,2.46,2.2Z"/>
  <path class="cls-1" d="m203.03,50.01c0,.92.01,1.66,0,2.41-.02,1.1-.63,1.99-1.62,2.03-.7.03-1.77-.55-2.07-1.16-.4-.81-.23-1.92-.23-2.89,0-.13.43-.36.66-.37,1.03-.04,2.06-.02,3.26-.02Z"/>
  <path class="cls-1" d="m132.45,23.34c-1.4.02-2.17-.72-2.19-2.12-.01-1.18,1.13-2.47,2.19-2.48.95,0,2,1.2,2.03,2.34.04,1.43-.69,2.24-2.04,2.26Z"/>
  <path class="cls-1" d="m225.74,122.4c0-1.74.23-1.95,2.04-1.93,1.12.01,2.48,1.15,2.46,2.05-.02.92-1.36,1.99-2.48,1.99-1.82,0-2.03-.23-2.02-2.11Z"/>
  <path class="cls-1" d="m33.17,78.92c0,1.31-.98,2.25-2.31,2.22-1.16-.03-1.79-.71-1.77-1.92.01-1.05,1.34-2.41,2.34-2.39.89.02,1.75,1.05,1.75,2.1Z"/>
  <path class="cls-1" d="m139.04,219.63c-.05,1.69-.3,1.92-1.99,1.88-1.28-.03-2.06-.8-2.04-2,.02-1.04,1.17-2.19,2.2-2.2,1.36,0,1.89.66,1.83,2.32Z"/>
  <path class="cls-1" d="m27.54,149.48c0-1.08,1.09-2.39,1.97-2.35.83.04,1.81,1.32,1.82,2.4.02.95-1.14,2.28-1.95,2.25-.9-.03-1.84-1.2-1.84-2.31Z"/>
  <path class="cls-1" d="m70.06,202.05c.27-.02.52-.05.76-.06,2.86-.09,2.9-.03,2.69,2.81-.05.72-.32.99-1.07,1-2.38.04-2.98-.63-2.6-3.04.04-.24.13-.46.21-.72Z"/>
  <path class="cls-1" d="m537.41,155.28c-.05-.36-.15-.73-.15-1.09-.02-16.65-.03-33.3-.04-49.95,0-.17.03-.33.04-.5.07.44.2.88.2,1.33.02,16.45.03,32.9.03,49.35,0,.29-.06.58-.09.86Z"/>
  <path class="cls-1" d="m205.9,182.42c.93.01,2,1.13,1.98,2.07-.01.75-1.53,1.85-2.54,1.83-.88-.01-1.59-.8-1.57-1.76.02-1.17.99-2.16,2.13-2.14Z"/>
  <path class="cls-1" d="m196.05,41.45v3.43c-1.52.29-2.82.25-3.51-1.23-.17-.37-.08-1.05.17-1.39.84-1.15,1.82-1.36,3.35-.82Z"/>
  <path class="cls-1" d="m486.29,157.29c-.01-1.25-.03-2.5-.03-3.74,0-14.46,0-28.91,0-43.37,0-.41.06-.83.09-1.24.05.45.15.9.15,1.34,0,15.23,0,30.45-.01,45.68,0,.44-.13.88-.2,1.32Z"/>
  <path class="cls-1" d="m149.87,221.5c-1.23,0-2.61.5-3.49-.78-.25-.37-.05-1.33.28-1.75.45-.56.88-1.56,1.98-1.01,1.18.6,1.52,1.54,1.23,3.53Z"/>
  <path class="cls-1" d="m227.74,111.17c-.15-.83.16-1.36,1.19-1.17.89.16,2.25-.58,2.32,1.17.05,1.15-1.02,2.32-2.1,2.34-1.08.02-1.39-.47-1.41-2.35Z"/>
  <path class="cls-1" d="m119.98,19.38c.04-.78-.26-1.72,1.14-1.65,1.45.08,2.31.56,2.34,1.52.03,1.05-1.08,2.02-2.24,2.04-1.48.03-1.2-1.04-1.24-1.91Z"/>
  <path class="cls-1" d="m213.69,178.59c-.83-.09-1.69-.17-1.68-1.35,0-.95.8-1.7,1.78-1.69.9,0,1.99.96,1.9,1.8-.12,1.18-1.12,1.14-2,1.24Z"/>
  <path class="cls-1" d="m188.51,34.87c-.02,1-.83,2.03-1.59,1.87-.87-.18-1.49-.7-1.5-1.69,0-1.12.59-1.79,1.58-1.8.84,0,1.52.73,1.51,1.62Z"/>
  <path class="cls-1" d="m81.47,211.31c-.11.81-.39,1.54-1.49,1.52-1.02-.02-1.7-.66-1.69-1.6.01-.91.79-1.76,1.6-1.76.85,0,1.59.82,1.58,1.84Z"/>
  <path class="cls-1" d="m31.1,158.98c1.26,0,1.91.56,1.89,1.48-.02,1.13-.91,1.16-1.67,1.21-1.11.07-1.73-.52-1.68-1.49.05-1.05.73-1.28,1.46-1.2Z"/>
  <path class="cls-1" d="m198.48,83.76c-1.49.34-3.06.71-3.92,2.07-.78,1.24-2.26,2.43-1.11,4.24.09.14-.08.45-.14.68-.03-.12-.01-.29-.09-.35-1.28-1.11-.82-2.27-.2-3.51.56-1.14.84-2.44,2.43-2.68.41-.06.76-.51,1.17-.65.62-.21,1.33-.65,1.85.21Z"/>
  <path class="cls-1" d="m231.27,100.41c-.02.79.07,1.65-1.16,1.59-.85-.04-1.83-.81-1.84-1.52-.02-.75.95-1.42,1.92-1.5,1.22-.11,1.08.69,1.09,1.43Z"/>
  <path class="cls-1" d="m402.27,80.07c-.1.17-.16.44-.31.51-1.83.84-3.68,1.62-5.49,2.49-.55.26-.96.82-1.51,1.07-.79.36-1.65.57-2.48.85,2.09-1.24,4.14-2.56,6.29-3.7,1.08-.57,2.33-.82,3.5-1.22Z"/>
  <path class="cls-1" d="m25.97,89.98c-.98.14-1.66-.09-1.71-1.15-.04-.83.83-1.63,1.71-1.62,1.15,0,1.32.84,1.39,1.7.08,1.07-.59,1.24-1.39,1.08Z"/>
  <path class="cls-1" d="m109.01,19.11c-.16-1.12.47-1.57,1.42-1.55,1,.02,1.36.62,1.37,1.64.01,1.27-.82,1.22-1.65,1.28-1.03.07-1.3-.48-1.14-1.36Z"/>
  <path class="cls-1" d="m230.72,89.79c-.38.42-.69,1.08-1.16,1.22-.78.23-2-1.03-1.93-1.87.07-.97.82-.98,1.54-1.04,1.11-.09,1.34.56,1.55,1.69Z"/>
  <path class="cls-1" d="m806,78.54c-2.6,1.21-5.18,2.44-7.79,3.63-.78.35-1.61.57-2.42.85,2.22-1.57,4.46-3.13,7.17-3.78,1.01-.24,2.03-.47,3.04-.7Z"/>
  <path class="cls-1" d="m157.72,217.74c1.25.22,2.16.23,2.89.61.23.12.21,1.51-.12,1.77-.49.38-1.71.6-2,.29-.48-.5-.47-1.47-.77-2.66Z"/>
  <path class="cls-1" d="m497.02,78.84c-.2.27-.35.65-.62.8-1.86.98-3.73,1.93-5.64,2.83-.57.27-1.23.33-1.86.48,2.48-1.81,5.1-3.35,8.11-4.11Z"/>
  <path class="cls-1" d="m959.99,82.97c-.55.02-1.11.05-1.66.07,2.27-1.86,4.67-3.43,7.69-3.76-1.06.57-2.15,1.1-3.18,1.73-.98.6-1.9,1.3-2.84,1.96Z"/>
  <path class="cls-1" d="m99.48,18.06c.64.63,1.04,1.01,1.43,1.4-.55.54-1.11,1.08-1.66,1.62-.38-.49-1.03-.97-1.05-1.48-.02-.43.7-.88,1.28-1.55Z"/>
  <path class="cls-1" d="m88.61,218.98c-.43-.45-.86-.91-1.29-1.36.52-.49,1.04-.98,1.56-1.47.38.51.93.97,1.09,1.54.21.76-.38,1.08-1.35,1.29Z"/>
  <path class="cls-1" d="m671.03,113.96c-5.66.01-11.32.03-16.98.03-2.12,0-4.24-.06-6.36-.09.32-.05.65-.14.97-.14,7.01,0,14.02,0,21.03.01.45,0,.89.12,1.33.18Z"/>
  <path class="cls-1" d="m177.46,28.04c.29-.93.4-1.76,1.37-1.53.51.12.91.72,1.35,1.1-.59.5-1.15,1.04-1.79,1.46-.06.04-.61-.67-.94-1.03Z"/>
  <path class="cls-1" d="m219.76,169.05c.1-1.06.53-1.36,1.23-1.27.6.08,1.61-.07,1.45.87-.1.58-.83,1.16-1.42,1.48-.17.09-.83-.7-1.26-1.08Z"/>
  <path class="cls-1" d="m604.7,82.52c-.33.13-.67.26-.84.33-1.34-.64-2.59-1.17-3.77-1.84-.45-.26-.73-.83-1.09-1.25,1.9.92,3.8,1.84,5.71,2.76Z"/>
  <path class="cls-1" d="m67.26,166.48c-.89.36-1.78.72-2.67,1.08-.55-.46-1.1-.93-1.65-1.39,1.59.2,2.75-.82,4.05-1.44.09.58.18,1.16.27,1.75Z"/>
  <path class="cls-1" d="m170.32,218.89c-.55-.56-1.29-1.05-1.22-1.31.15-.53.73-.95,1.13-1.41.43.49.94.94,1.23,1.51.07.13-.6.65-1.14,1.21Z"/>
  <path class="cls-1" d="m35.64,170.98c-.56.61-.93,1.02-1.3,1.42-.34-.46-.94-.91-.95-1.38,0-.44.61-.89.95-1.33.36.36.72.72,1.3,1.28Z"/>
  <path class="cls-1" d="m313.96,80.14c-1.11.55-2.23,1.08-3.33,1.66-1,.53-1.97,1.11-2.98,1.63-.17.09-.45-.02-.68-.03,1.17-.71,2.39-1.34,3.49-2.14,1.07-.78,2.27-.96,3.51-1.13Z"/>
  <path class="cls-1" d="m99.97,223.07c-.64.51-1.03.82-1.42,1.13-.27-.43-.74-.86-.76-1.31-.02-.39.47-.8.73-1.2.4.38.8.76,1.45,1.38Z"/>
  <path class="cls-1" d="m21.54,97.55c.46.65,1,1.12.92,1.37-.15.43-.69.72-1.07,1.07-.3-.42-.74-.8-.85-1.26-.06-.23.49-.6,1-1.18Z"/>
  <path class="cls-1" d="m792.33,132.21c-1.5.02-2.67-.65-3.6-1.78,1.51-.03,2.77.44,3.6,1.78Z"/>
  <path class="cls-1" d="m228.9,78.57c-.78.34-1.18.64-1.58.63-.26,0-.77-.6-.72-.7.21-.39.55-.91.91-.97.3-.05.69.49,1.38,1.04Z"/>
  <path class="cls-1" d="m88.39,20.2c.33.68.65,1.07.66,1.46,0,.21-.58.65-.79.6-.33-.09-.79-.52-.79-.79,0-.33.44-.65.91-1.27Z"/>
  <path class="cls-1" d="m228.83,159.72c-.56.47-.92.98-1.18.94-.35-.06-.63-.55-.94-.86.28-.27.54-.72.85-.75.32-.03.68.34,1.27.68Z"/>
  <path class="cls-1" d="m168.85,22.02c.2-.52.38-1.05.64-1.54.03-.06.65.05.71.19.16.39.35.96.17,1.23-.19.29-.78.31-1.2.44-.11-.11-.22-.22-.33-.33Z"/>
  <path class="cls-1" d="m45.57,81.46c-1.48.05-3-.11-4.06,1.32-.18.24-.77.17-1.17.25,1.22-1.63,3-2.17,5.23-1.57Z"/>
  <path class="cls-1" d="m233.9,150.07c-.42.39-.68.64-.95.88-.27-.36-.58-.7-.76-1.1-.03-.08.49-.59.71-.55.31.05.56.41,1,.77Z"/>
  <path class="cls-1" d="m109.8,227.44c-.56.33-.87.65-1.17.65-.21,0-.61-.46-.58-.68.04-.33.38-.62.59-.92.31.25.63.51,1.16.94Z"/>
  <path class="cls-1" d="m77.59,25.54c-.29-.49-.6-.78-.56-1.02.05-.33.37-.62.57-.92.28.3.7.56.8.91.06.19-.41.54-.81,1.03Z"/>
  <path class="cls-1" d="m38.31,182.49c-.34-.71-.63-1.06-.63-1.41,0-.24.38-.49.6-.73.24.34.57.65.68,1.02.06.2-.27.51-.64,1.13Z"/>
  <path class="cls-1" d="m160.02,16.89c-.37-.45-.75-.8-.71-.87.23-.38.58-.68.89-1.01.19.22.56.48.52.66-.08.36-.37.68-.7,1.22Z"/>
  <path class="cls-1" d="m180.68,215.54c-.3-.5-.63-.8-.61-1.09,0-.22.54-.65.67-.59.31.13.63.46.73.78.05.16-.39.46-.78.9Z"/>
  <path class="cls-1" d="m411.72,161.52c2.09.05,4.19.1,6.28.16-2.09-.05-4.19-.1-6.28-.16Z"/>
  <path class="cls-1" d="m392.24,85.23c-.25.45-.43.98-.78,1.33-.17.17-.68,0-1.03-.03.6-.43,1.21-.87,1.81-1.3Z"/>
  <path class="cls-1" d="m844.37,137.79c.02-1.28.03-2.55.05-3.83-.02,1.28-.03,2.55-.05,3.83Z"/>
  <path class="cls-1" d="m533.27,93.24c-.32-.11-.65-.21-.97-.32.15-.26.29-.51.44-.77.18.36.35.73.53,1.09Z"/>
  <path class="cls-1" d="m844.01,140.01c.1-.43.2-.86.31-1.29-.1.43-.2.86-.31,1.29Z"/>
  <path class="cls-1" d="m537.36,157.56c.01-.53.03-1.06.04-1.59-.01.53-.03,1.06-.04,1.59Z"/>
  <path class="cls-1" d="m844.4,133.54c-.03-.53-.06-1.05-.09-1.58.03.53.06,1.05.09,1.58Z"/>
  <path class="cls-1" d="m315,79.53c-.32.16-.64.32-.96.49.32-.16.64-.32.96-.49Z"/>
  <path class="cls-1" d="m991.74,146.47c-.25.18-.5.35-.75.53.25-.18.5-.35.75-.53Z"/>
  <path class="cls-1" d="m505.52,77.4c-.43,0-.86,0-1.28,0,.43,0,.86,0,1.28,0Z"/>
  <path class="cls-1" d="m730.02,77.52c-.27.22-.54.44-.81.66.27-.22.54-.44.81-.66Z"/>
  <path class="cls-1" d="m647.3,113.91c-.44.02-.87.05-1.31.07.44-.02.87-.05,1.31-.07Z"/>
  <path class="cls-1" d="m901.06,130.25c.06-.34.11-.69.17-1.03-.06.34-.11.69-.17,1.03Z"/>
  <path class="cls-1" d="m957.74,83.49c-.19.16-.38.31-.57.47.19-.16.38-.31.57-.47Z"/>
  <path class="cls-1" d="m704.36,154c.04.27.07.53.11.8-.04-.27-.07-.53-.11-.8Z"/>
  <path class="cls-1" d="m958.28,83.07c-.18.14-.36.28-.55.42.18-.14.36-.28.55-.42Z"/>
  <path class="cls-1" d="m971.77,77.43c-.26,0-.52,0-.78,0,.26,0,.52,0,.78,0Z"/>
  <path class="cls-1" d="m704.47,106.45c-.03.27-.07.53-.1.8.03-.27.07-.53.1-.8Z"/>
  <path class="cls-1" d="m322.77,77.43c-.26,0-.52,0-.78,0,.26,0,.52,0,.78,0Z"/>
  <path class="cls-1" d="m756.18,114.25c0,.17,0,.33,0,.5,0-.17,0-.33,0-.5Z"/>
  <path class="cls-1" d="m731.77,77.43c-.18,0-.36,0-.54.01.18,0,.36,0,.54-.01Z"/>
  <path class="cls-1" d="m390.24,86.69c-.15.11-.3.22-.46.33.15-.11.3-.22.46-.33Z"/>
  <path class="cls-1" d="m532.64,92.02c-.13-.18-.25-.35-.38-.53.13.18.25.35.38.53Z"/>
  <path class="cls-1" d="m583.52,77.4c-.18,0-.36,0-.54,0,.18,0,.36,0,.54,0Z"/>
  <path class="cls-1" d="m580.77,77.43c-.18,0-.36,0-.54.01.18,0,.36,0,.54-.01Z"/>
  <path class="cls-1" d="m502.77,77.42c-.18,0-.36,0-.54,0,.18,0,.36,0,.54,0Z"/>
  <path class="cls-1" d="m501.52,77.45c-.17.01-.35.02-.52.03.17-.01.35-.02.52-.03Z"/>
  <path class="cls-1" d="m756.18,113.25c0,.17,0,.33,0,.5,0-.17,0-.33,0-.5Z"/>
  <path class="cls-1" d="m844.27,131.74c-.07-.17-.14-.35-.21-.52.07.17.14.35.21.52Z"/>
  <path class="cls-1" d="m323.77,77.42c-.18,0-.36,0-.54,0,.18,0,.36,0,.54,0Z"/>
  <path class="cls-1" d="m756.18,112.25c0,.17,0,.33,0,.5,0-.17,0-.33,0-.5Z"/>
  <path class="cls-1" d="m756.19,148.25c0,.17,0,.34,0,.5,0-.17,0-.34,0-.5Z"/>
  <path class="cls-1" d="m756.18,111.25c0,.17,0,.33,0,.5,0-.17,0-.33,0-.5Z"/>
  <path class="cls-1" d="m674.73,124.34c.17-.03.35-.06.52-.09-.17.03-.35.06-.52.09Z"/>
  <path class="cls-1" d="m704.33,107.75c0,.17-.01.34-.02.51,0-.17.01-.34.02-.51Z"/>
  <path class="cls-1" d="m756.19,125.5c0,.09,0,.17,0,.26-.03-.06-.06-.12-.08-.18,0-.02.05-.05.08-.07Z"/>
  <path class="cls-1" d="m756.19,120.5c0,.09,0,.17,0,.26-.03-.06-.06-.12-.08-.18,0-.02.05-.05.08-.07Z"/>
  <path class="cls-1" d="m756.2,151.25c0,.09,0,.17,0,.26-.03-.06-.06-.12-.08-.18,0-.02.05-.05.08-.08Z"/>
  <path class="cls-1" d="m756.2,108.5c0,.09,0,.17,0,.26-.03-.06-.07-.12-.09-.18,0-.02.05-.05.08-.08Z"/>
  <path class="cls-1" d="m756.19,146.5c0,.09,0,.17,0,.26-.03-.06-.06-.12-.08-.18,0-.02.05-.05.08-.07Z"/>
  <path class="cls-1" d="m537.23,158.23c.03-.09.06-.18.08-.28-.03.09-.06.18-.08.28Z"/>
  <path class="cls-1" d="m486.29,104.53c0-.1-.02-.19-.03-.29.03.07.07.13.09.2,0,.02-.04.06-.07.09Z"/>
  <path class="cls-1" d="m383.56,146.01c.06.08.13.16.19.24-.06-.08-.13-.16-.19-.24Z"/>
  <path class="cls-1" d="m756.19,145.5c0,.09,0,.17,0,.26-.03-.06-.06-.12-.08-.18,0-.02.05-.05.08-.07Z"/>
  <path class="cls-1" d="m419.71,161.53c.1,0,.19-.01.29-.02-.1,0-.19.01-.29.02Z"/>
  <path class="cls-1" d="m961.45,102.76c-.07-.08-.14-.15-.21-.23.07.08.14.15.21.23Z"/>
  <path class="cls-1" d="m67.77,164.01c.08-.09.15-.17.23-.26-.08.09-.15.17-.23.26Z"/>
  <path class="cls-1" d="m66.99,164.74c.09-.07.18-.14.27-.22-.09.07-.18.14-.27.22Z"/>
  <path class="cls-1" d="m756.19,144.5c0,.09,0,.17,0,.26-.03-.06-.06-.12-.08-.18,0-.02.05-.05.08-.07Z"/>
  <path class="cls-1" d="m62.47,165.89c.08.05.16.09.24.14-.08-.05-.16-.09-.24-.14Z"/>
  <path class="cls-1" d="m756.19,143.5c0,.09,0,.17,0,.26-.03-.06-.06-.12-.08-.18,0-.02.05-.05.08-.07Z"/>
  <path class="cls-1" d="m756.19,142.5c0,.09,0,.17,0,.26-.03-.06-.06-.12-.08-.18,0-.02.05-.05.08-.07Z"/>
  <path class="cls-1" d="m64.56,167.59c-.09.07-.18.14-.26.21.09-.07.18-.14.26-.21Z"/>
  <path class="cls-1" d="m532.26,91.49c-.08-.1-.16-.19-.25-.29.08.1.16.19.25.29Z"/>
  <path class="cls-1" d="m193.41,91.25c.03.08.06.17.09.25-.03-.08-.06-.17-.09-.25Z"/>
  <path class="cls-1" d="m756.19,141.5c0,.09,0,.17,0,.26-.03-.06-.06-.12-.08-.18,0-.02.05-.05.08-.07Z"/>
  <path class="cls-1" d="m672.02,113.97c-.1,0-.19,0-.29,0,.1,0,.19,0,.29,0Z"/>
  <path class="cls-1" d="m956.76,84.28c-.09.07-.18.14-.27.21.09-.07.18-.14.27-.21Z"/>
  <path class="cls-1" d="m756.19,140.5c0,.09,0,.17,0,.26-.03-.06-.06-.12-.08-.18,0-.02.05-.05.08-.07Z"/>
  <path class="cls-1" d="m525.17,83.75c-.05-.03-.09-.06-.13-.11,0,0,.1,0,.1,0l.03.1Z"/>
  <path class="cls-1" d="m524.78,83.48c-.09-.06-.18-.12-.27-.18.09.06.18.12.27.18Z"/>
  <path class="cls-1" d="m756.19,139.5c0,.09,0,.17,0,.26-.03-.06-.06-.12-.08-.18,0-.02.05-.05.08-.07Z"/>
  <path class="cls-1" d="m756.19,121.5c0,.09,0,.17,0,.26-.03-.06-.06-.12-.08-.18,0-.02.05-.05.08-.07Z"/>
  <path class="cls-1" d="m46.03,81.74c-.09-.08-.19-.16-.28-.24.09.08.19.16.28.24Z"/>
  <path class="cls-1" d="m756.19,138.5c0,.09,0,.17,0,.26-.03-.06-.06-.12-.08-.18,0-.02.05-.05.08-.07Z"/>
  <path class="cls-1" d="m756.19,122.5c0,.09,0,.17,0,.26-.03-.06-.06-.12-.08-.18,0-.02.05-.05.08-.07Z"/>
  <path class="cls-1" d="m826.82,79.48c-.1-.05-.2-.09-.3-.14.1.05.2.09.3.14Z"/>
  <path class="cls-1" d="m756.19,137.5c0,.09,0,.17,0,.26-.03-.06-.06-.12-.08-.18,0-.02.05-.05.08-.07Z"/>
  <path class="cls-1" d="m756.19,136.5c0,.09,0,.17,0,.26-.03-.06-.06-.12-.08-.18,0-.02.05-.05.08-.07Z"/>
  <path class="cls-1" d="m812.52,77.4c-.1,0-.2,0-.3,0,.1,0,.2,0,.3,0Z"/>
  <path class="cls-1" d="m809.77,77.43c-.1,0-.19,0-.29,0,.1,0,.19,0,.29,0Z"/>
  <path class="cls-1" d="m808.51,77.48c-.09,0-.17.02-.26.02.09,0,.17-.02.26-.02Z"/>
  <path class="cls-1" d="m734.52,77.4c-.1,0-.2,0-.3,0,.1,0,.2,0,.3,0Z"/>
  <path class="cls-1" d="m756.19,123.5c0,.09,0,.17,0,.26-.03-.06-.06-.12-.08-.18,0-.02.05-.05.08-.07Z"/>
  <path class="cls-1" d="m590.52,77.43c-.1,0-.2,0-.29-.01.1,0,.2,0,.29.01Z"/>
  <path class="cls-1" d="m756.19,135.5c0,.09,0,.17,0,.26-.03-.06-.06-.12-.08-.18,0-.02.05-.05.08-.07Z"/>
  <path class="cls-1" d="m756.19,134.5c0,.09,0,.17,0,.26-.03-.06-.06-.12-.08-.18,0-.02.05-.05.08-.07Z"/>
  <path class="cls-1" d="m510.52,77.46c-.09,0-.19-.01-.28-.02.09,0,.19.01.28.02Z"/>
  <path class="cls-1" d="m756.19,133.5c0,.09,0,.17,0,.26-.03-.06-.06-.12-.08-.18,0-.02.05-.05.08-.07Z"/>
  <path class="cls-1" d="m756.19,132.5c0,.09,0,.17,0,.26-.03-.06-.06-.12-.08-.18,0-.02.05-.05.08-.07Z"/>
  <path class="cls-1" d="m756.19,131.5c0,.09,0,.17,0,.26-.03-.06-.06-.12-.08-.18,0-.02.05-.05.08-.07Z"/>
  <path class="cls-1" d="m325.52,77.4c-.1,0-.2,0-.3,0,.1,0,.2,0,.3,0Z"/>
  <path class="cls-1" d="m673.73,124.32c.1,0,.2.01.29.02-.1,0-.2-.01-.29-.02Z"/>
  <path class="cls-1" d="m890.7,130.98c0,.1-.01.19-.02.29-.02-.07-.05-.14-.06-.21,0-.02.05-.05.08-.08Z"/>
  <path class="cls-1" d="m756.19,130.5c0,.09,0,.17,0,.26-.03-.06-.06-.12-.08-.18,0-.02.05-.05.08-.07Z"/>
  <path class="cls-1" d="m756.19,129.5c0,.09,0,.17,0,.26-.03-.06-.06-.12-.08-.18,0-.02.05-.05.08-.07Z"/>
  <path class="cls-1" d="m756.19,124.5c0,.09,0,.17,0,.26-.03-.06-.06-.12-.08-.18,0-.02.05-.05.08-.07Z"/>
  <path class="cls-1" d="m756.19,128.5c0,.09,0,.17,0,.26-.03-.06-.06-.12-.08-.18,0-.02.05-.05.08-.07Z"/>
  <path class="cls-1" d="m756.19,127.5c0,.09,0,.17,0,.26-.03-.06-.06-.12-.08-.18,0-.02.05-.05.08-.07Z"/>
  <path class="cls-1" d="m756.19,126.5c0,.09,0,.17,0,.26-.03-.06-.06-.12-.08-.18,0-.02.05-.05.08-.07Z"/>
  <path class="cls-1" d="m486.32,107.81c0-.12,0-.24,0-.36,0,.12,0,.24,0,.36Z"/>
  <path class="cls-1" d="m62.98,155.73q2.74-2.83,3.97-6.03c.97.79,1.88,1.5,2.74,2.27.13.11.16.58.05.68-1.26,1.15-.58,2.64-.74,3.98-.05.41,0,.82,0,1.57-.64-.34-1.2-.49-1.53-.86-.89-.98-1.87-1.57-3.25-1.36-.34.05-.71-.13-1.23-.24Z"/>
  <path class="cls-1" d="m193.73,146.1c.59.97,1.13,1.76,1.55,2.61.15.29,0,.73,0,1.1-.35-.07-.82-.01-1.04-.22-.96-.91-1.93-.71-2.97-.22-.74.36-1.5.71-2.28.96-.27.09-.63-.12-.95-.2.16-.31.23-.74.48-.92.53-.38,1.13-.76,1.75-.91,1.32-.32,2.28-1.11,3.15-2.08.1-.11.29-.12.3-.13Z"/>
</svg>