<?xml version="1.0" encoding="utf-8"?>
<!-- Generator: Adobe Illustrator 27.7.0, SVG Export Plug-In . SVG Version: 6.00 Build 0)  -->
<svg version="1.1" id="Layer_2_00000104681377724125377210000003328790749810310835_"
	 xmlns="http://www.w3.org/2000/svg" xmlns:xlink="http://www.w3.org/1999/xlink" x="0px" y="0px" viewBox="0 0 579.8 180.5"
	 style="enable-background:new 0 0 579.8 180.5;" xml:space="preserve">
<style type="text/css">
	.st0{fill:#FFFFFF;}
</style>
<g id="Layer_1-2">
	<g>
		<g id="Group_4">
			<path id="Path_59" class="st0" d="M66.2,150.3c-36.2-20.9-62.4-36.1-64-37c-0.6-0.3-1.2-0.8-1.6-1.5c-0.3-0.7-0.5-1.4-0.4-2.2
				c0.1-4.1,0-8.2,0-12v-1.2l79.9,46.1L66.2,150.3z"/>
			<path id="Path_60" class="st0" d="M118.1,121.4v13.3c0,1.7-1.3,2.2-2.5,2.9l-54.4,31.5c-0.8,0.6-1.8,0.9-2.7,0.9
				c-0.7-0.1-1.3-0.3-1.8-0.6c-1.6-1-6-3.6-12-7.2L118.1,121.4L118.1,121.4z"/>
			<path id="Path_61" class="st0" d="M58.3,154.7l-13.6,7.5c-12.8-7.3-25.7-14.5-38.4-22.1c-2-1-3.7-2.5-4.8-4.4
				c-0.8-2-1.2-4.2-1.1-6.4c-0.1-2.7-0.1-5.4,0-8.2L58.3,154.7L58.3,154.7L58.3,154.7z"/>
			<path id="Path_62" class="st0" d="M118.2,145.2c0,5.2-0.1,9.4,0,13.6c0,1.6-0.9,2.9-2.3,3.5c-9.8,5.6-19.6,11.4-29.4,16.9
				c-5.2,2.9-13,0.9-18.2-3.1c-0.5-0.4-0.9-0.7-1.2-1C67,175,118.2,145.2,118.2,145.2z"/>
			<path id="Path_63" class="st0" d="M35.2,48.7c36.2-20.9,62.4-36,64-37c0.6-0.4,1.3-0.6,2.1-0.6c0.8,0,1.5,0.3,2.1,0.7
				c3.5,2.1,7.1,4.1,10.4,6l1.1,0.6L34.9,64.6C35,59.3,35.1,54,35.2,48.7z"/>
			<path id="Path_64" class="st0" d="M34.2,108.2c-3.9-2.2-7.7-4.5-11.6-6.7c-1.5-0.8-1.3-2.2-1.3-3.6c-0.1-21-0.1-42-0.1-62.9
				c-0.1-1,0.1-2,0.6-2.8c0.4-0.5,0.9-1,1.5-1.3c1.7-0.9,6.2-3.4,12.2-6.8C35.1,52.2,34.7,80.2,34.2,108.2L34.2,108.2z"/>
			<path id="Path_65" class="st0" d="M35.3,39.7c0.1-5.2,0.2-10.4,0.2-15.5C48.3,16.8,61,9.2,73.9,2c1.9-1.3,4-1.9,6.3-2
				c2.2,0.3,4.2,1,6,2.2c2.4,1.2,4.8,2.6,7.1,4.1L35.3,39.7L35.3,39.7z"/>
			<path id="Path_66" class="st0" d="M13.7,96.3c-4.5-2.6-8.1-4.8-11.8-6.8c-1.4-0.7-2.1-2.2-1.8-3.7c0-11.3-0.1-22.6,0.1-33.9
				C0.2,46,5.8,40.2,11.9,37.7c0.6-0.2,1.1-0.4,1.4-0.5C13.4,56.9,13.5,76.6,13.7,96.3z"/>
			<path id="Path_67" class="st0" d="M138.5,72.7c0.1,41.8,0.1,72.1,0.2,73.9c0.1,0.7-0.1,1.5-0.5,2.1c-0.4,0.6-1,1.1-1.6,1.5
				c-3.6,2-7.1,4.1-10.4,6l-1,0.6c-0.1-30.8-0.2-61.5-0.3-92.3L138.5,72.7L138.5,72.7z"/>
			<path id="Path_68" class="st0" d="M87.4,42.2c3.9-2.2,7.7-4.5,11.6-6.7c1.5-0.9,2.6,0,3.7,0.7l54.6,31.3c0.9,0.4,1.6,1.1,2.1,1.9
				c0.3,0.6,0.4,1.2,0.3,1.9c-0.1,1.9-0.1,7-0.2,14L87.4,42.2L87.4,42.2L87.4,42.2z"/>
			<path id="Path_69" class="st0" d="M146.2,77.3l13.3,8c0.1,14.8,0.3,29.5,0.2,44.3c0.2,2.2-0.3,4.5-1.4,6.4
				c-1.3,1.7-3,3.1-4.9,4.2c-2.3,1.5-4.6,2.8-7.1,4.1L146.2,77.3L146.2,77.3z"/>
			<path id="Path_70" class="st0" d="M108,30.3c4.5-2.6,8.2-4.6,11.7-6.9c1.3-0.8,3-0.7,4.2,0.3c9.8,5.7,19.6,11.2,29.4,17
				c5.1,3,7.3,10.8,6.5,17.3c-0.1,0.6-0.2,1.1-0.2,1.5L108,30.3C108,30.2,108,30.3,108,30.3z"/>
		</g>
		<g>
			<path id="Path_71" class="st0" d="M548.7,64.5l-0.1,29.6L539,94c0-15.6,0-31.1,0.1-46.7l9.2-0.2l21.4,28.4l-0.3-28.3h10.5v46.6
				l-9.2,0.1L548.7,64.5L548.7,64.5z"/>
			<path id="Path_72" class="st0" d="M400.4,47.4l10.5-0.2V66h18.5V47.4l10.7-0.2c-0.1,15.5-0.2,31-0.2,46.5l-10.4,0.1
				c-0.1-6.2-0.1-12.3-0.2-18.5h-18.6c0,6.2,0,12.4,0.1,18.7l-10.4-0.1L400.4,47.4L400.4,47.4z"/>
			<path id="Path_73" class="st0" d="M370.5,93.8c-12.8,0-21.2-6.2-24.5-16.5c-3.3-10.1,0.4-21.1,9.1-27.2c9-6,20.7-5.8,29.5,0.5
				c1.1,0.8,2,1.7,2.9,2.7l-6.3,7.4c-3-3.3-7.2-5.2-11.6-5.3c-2.9,0.1-5.6,0.9-8,2.5c-5,3.7-7.1,10.1-5.3,16
				c1.3,4.7,4.8,8.5,9.4,10.1c5.6,1.6,11.6-0.1,15.4-4.6l6.4,6.4c-0.7,0.8-1.4,1.6-2.2,2.2C381.1,91.6,375.9,93.6,370.5,93.8
				L370.5,93.8L370.5,93.8z"/>
			<path id="Path_74" class="st0" d="M251.3,47.3h35v9.2l-24.5,0.1l0.1,9.4l22.1-0.1c0,3.1-0.1,6.2-0.1,9.3l-22,0.2l-0.1,18.5
				l-10.4-0.1L251.3,47.3L251.3,47.3z"/>
			<path id="Path_75" class="st0" d="M299.6,47.3h35v9.2l-24.5,0.1l0.1,9.4l22.1-0.1c0,3.1-0.1,6.2-0.1,9.3l-22,0.2l-0.1,18.5
				l-10.4-0.1L299.6,47.3L299.6,47.3z"/>
			<path id="Path_76" class="st0" d="M522.7,93.8l-10.4,0.1c0-15.5,0-31-0.1-46.5l10.4-0.1C522.6,62.8,522.7,78.3,522.7,93.8
				L522.7,93.8z"/>
			<path id="Path_77" class="st0" d="M452.9,146.9c-2.2-0.2-4.2-0.9-6.1-2.1c-0.7-0.4-1.3-0.8-1.9-1.3l2.3-4.3
				c0.7,0.5,1.4,1,2.2,1.4c1.6,0.8,3.4,1.1,5.2,1.1c2.1,0.1,2.8-0.4,3.1-0.6c0.4-0.3,0.6-0.8,0.8-1.3c0.1-0.4,0.1-1,0-1.4
				c-0.5-0.9-1.3-1.5-2.2-1.7c-3-1.1-3.9-0.8-5.8-1.6c-1.9-0.6-3.6-1.9-4.7-3.6c-0.6-1.1-0.8-2.4-0.8-3.7c0.1-3.6,2.7-6.7,6.2-7.4
				c3.2-0.9,6.6-0.4,9.6,1.2c1.2,0.7,2.3,1.6,3.2,2.7l-3.2,3.7c-0.7-0.9-1.6-1.6-2.7-2.1c-1.8-0.8-3.8-0.9-5.6-0.2
				c-0.7,0.2-1.3,0.8-1.7,1.4c-0.2,0.7-0.1,1.3,0.2,1.9c0.9,1.7,3.3,1,6.8,2.2c2.7,0.7,4.9,2.4,6.3,4.9c0.6,1.4,0.6,3,0.2,4.5
				C463.1,145.6,459,146.7,452.9,146.9L452.9,146.9L452.9,146.9z"/>
			<path id="Path_78" class="st0" d="M304,147.4c-0.1-8.5-0.2-17.1-0.4-25.6h5.9c0,6.6,0.1,13.3,0.1,19.9l12.8-0.1
				c-0.1,1.9-0.1,3.9-0.1,5.9L304,147.4L304,147.4L304,147.4z"/>
			<path id="Path_79" class="st0" d="M213.4,45.9c-13.5-0.2-24.7,10.5-24.9,24v0.4c-0.2,13.7,10.7,25,24.4,25.2
				c13.7,0.2,25-10.7,25.2-24.4c0.2-13.7-10.7-25-24.4-25.2L213.4,45.9C213.4,45.9,213.4,45.9,213.4,45.9z M213.8,84.3
				c-7.5,0.4-13.9-5.4-14.2-13v-1.2c-0.6-7.4,4.9-13.9,12.3-14.5c0.3,0,0.6,0,0.9-0.1c7.6-0.3,14,5.6,14.3,13.2v1
				c0.5,7.5-5.1,14-12.6,14.5C214.3,84.3,214.1,84.3,213.8,84.3L213.8,84.3L213.8,84.3L213.8,84.3z"/>
			<path id="Path_80" class="st0" d="M480.7,46.1h-9.3l-20.9,47.8h11.6l4.4-10.5l18.9,0.1l4.5,10.3l11.7,0.1L480.7,46.1L480.7,46.1
				L480.7,46.1z M470.2,74.1l5.8-15.8l6,15.8H470.2z"/>
			<path id="Path_81" class="st0" d="M419.7,136.9c-0.7-1.5-1.8-2.7-3.3-3.4c1-0.7,1.7-1.7,2.1-2.8c0.8-2.2,0.4-4.7-0.9-6.7
				c-1.4-2-3.7-3.3-6.2-3.4H398c0.1,9,0.1,17.9,0.1,26.9l7.4-0.1l8.3,0.1c2.7-0.7,4.9-2.6,6-5.1
				C420.5,140.6,420.4,138.7,419.7,136.9L419.7,136.9L419.7,136.9z M404,125.3l6.6,0.1c1.6,0.7,2.3,2.6,1.6,4.3
				c-0.3,0.7-0.9,1.3-1.6,1.6h-6.7C403.9,129.3,404,127.3,404,125.3L404,125.3z M412,142.7h-7.9l-0.1-6.8l7.1-0.1
				c1.1,0,2.2,0.4,2.9,1.3c1.1,1.4,1,3.5-0.2,4.8C413.3,142.3,412.7,142.6,412,142.7L412,142.7z"/>
			<path id="Path_82" class="st0" d="M362,121.1h-5.1l-11.5,26.3h6.4l2.5-5.8h10.4l2.5,5.7l6.5,0.1
				C369.7,138.6,365.8,129.9,362,121.1L362,121.1L362,121.1z M356.2,136.5l3.2-8.7l3.3,8.7H356.2L356.2,136.5L356.2,136.5z"/>
		</g>
	</g>
</g>
</svg>
