<?xml version="1.0" encoding="utf-8"?>
<!-- Generator: Adobe Illustrator 26.0.2, SVG Export Plug-In . SVG Version: 6.00 Build 0)  -->
<svg version="1.1" id="Layer_1" xmlns="http://www.w3.org/2000/svg" xmlns:xlink="http://www.w3.org/1999/xlink" x="0px" y="0px"
	 viewBox="0 0 1080 475" style="enable-background:new 0 0 1080 475;" xml:space="preserve">
<style type="text/css">
	.st0{fill:#FFFFFF;}
</style>
<g id="XMLID_00000016049878970426373510000011075760134612836279_">
	<g>
		<g>
			<path class="st0" d="M679.2,226.6c-16.9,0-30.5,16.4-30.5,36.6c0,20.2,13.7,36.6,30.5,36.6s30.4-16.4,30.5-36.6
				C709.7,243,696,226.6,679.2,226.6z"/>
			<path class="st0" d="M793.8,226.6c-16.9,0-30.5,16.4-30.5,36.6c0,20.2,13.7,36.6,30.5,36.6s30.4-16.4,30.5-36.6
				C824.3,243,810.6,226.6,793.8,226.6z"/>
			<path class="st0" d="M951.1,21.4h-820c-61.9,0-112,50.2-112,112v209.1c0,61.9,50.1,112,112,112h820c61.9,0,112-50.1,112-112
				V133.4C1063.1,71.5,1013,21.4,951.1,21.4z M252.2,376.2C175.9,376.2,114,314.3,114,238S175.9,99.8,252.2,99.8
				S390.4,161.7,390.4,238S328.5,376.2,252.2,376.2z M505.8,227c-0.7,0.1-1.4,0.1-2.2,0c-21.2-2.3-36.6,14.5-36.6,35v46.3
				c0,6.3-5.3,11.4-11.7,11c-5.9-0.4-10.3-5.5-10.3-11.4v-89.8c0-6.1,4.9-11,11-11c5.5,0,11,4.3,11,11v1.5
				c8.7-10.8,23.6-16.8,39.6-14.4c5.2,0.9,9.2,5.4,9.2,10.8C515.8,221.8,511.4,226.5,505.8,227z M604.1,270.5v-0.2h-67.2
				c2.9,16.7,15.2,29.3,29.9,29.3c12.3,0,20.1-7,24.1-10.4c4.3-3.6,10-4.7,14.6-1.5c5.6,3.9,6.5,11.9,1.9,16.9
				c-9.4,10.4-22.4,17-40.5,17c-28.9,0-52.4-26.2-52.4-58.5s23.4-58.5,52.4-58.5c24.5,0,45,18.7,50.8,43.9c0.5,1.9,0.8,4.2,1,7.9
				C619.1,263.4,613.6,270.5,604.1,270.5z M729.1,308.3c0,6.1-4.9,11-11,11c-5.4,0-9.8-3.8-10.8-8.9c-7.5,7.4-17,11.3-28.2,11.3
				c-28.9,0-52.4-26.2-52.4-58.5c0-32.3,23.4-58.5,52.4-58.5c11.1,0,20.6,3.8,28,11.2v-49c0-6.1,4.9-11,11-11s11,4.9,11,11
				C729.1,166.9,729.1,308.2,729.1,308.3z M843.8,308.3c0,6.1-4.9,11-11,11c-5.4,0-9.8-3.8-10.8-8.9c-7.5,7.4-17,11.3-28.2,11.3
				c-28.9,0-52.4-26.2-52.4-58.5c0-32.3,23.4-58.5,52.4-58.5c11.1,0,20.6,3.8,28,11.2v-49c0-6.1,4.9-11,11-11s11,4.9,11,11
				C843.8,166.9,843.8,308.2,843.8,308.3z M892.5,308.3c0,6.1-4.9,11-11,11s-11-4.9-11-11c0-3.5,0-80.1,0-80.5c0-6.1,4.9-11,11-11
				s11,4.9,11,11C892.5,228.3,892.5,304.9,892.5,308.3z M881.6,207.1c-10.8,0-19.5-8.7-19.5-19.5c0-10.8,8.7-19.5,19.5-19.5
				s19.5,8.7,19.5,19.5C901.1,198.4,892.4,207.1,881.6,207.1z M968.2,217.5c-0.4,5.2-4.9,9.1-10.1,9.1h-9.8v81.7
				c0,6.1-4.9,11-10.9,11c-6.1,0-11-4.9-11-11v-81.7H917c-5.6,0-10.1-4.7-9.7-10.4c0.4-5.2,4.9-9.1,10.1-9.1h9.1v-15.9
				c0-6.3,5.3-11.3,11.7-10.9c5.8,0.4,10.2,5.5,10.2,11.3v15.5h10.1C964.1,207.1,968.6,211.8,968.2,217.5z"/>
			<path class="st0" d="M567,226.6c-13.3,0-24.6,10.2-28.8,24.4h57.5C591.6,236.8,580.3,226.6,567,226.6z"/>
		</g>
		<path class="st0" d="M344.3,238c0-11.1-9-20.2-20.2-20.2c-5.4,0-10.4,2.2-14,5.7c-13.8-9.9-32.8-16.4-53.9-17.1l9.2-43.2l30,6.4
			c0.4,7.6,6.6,13.7,14.3,13.7c7.9,0,14.4-6.4,14.4-14.4c0-7.9-6.4-14.4-14.4-14.4c-5.7,0-10.5,3.3-12.9,8l-33.5-7.1
			c-0.9-0.2-1.9,0-2.7,0.5c-0.8,0.5-1.4,1.3-1.6,2.3l-10,48.2c-21.4,0.6-40.7,7-54.7,17.1c-3.6-3.5-8.5-5.6-13.9-5.6
			c-11.1,0-20.2,9-20.2,20.2c0,8.2,4.9,15.2,11.9,18.4c-0.3,2-0.5,4-0.5,6.1c0,31,36.1,56.1,80.6,56.1s80.6-25.1,80.6-56.1
			c0-2-0.2-4.1-0.5-6.1C339.4,253.3,344.3,246.2,344.3,238z M206.2,252.4c0-7.9,6.5-14.4,14.4-14.4s14.4,6.5,14.4,14.4
			s-6.5,14.4-14.4,14.4C212.6,266.8,206.2,260.3,206.2,252.4z M286.4,290.4c-9.8,9.8-28.6,10.6-34.2,10.6c-5.5,0-24.4-0.8-34.2-10.6
			c-1.5-1.5-1.5-3.8,0-5.3s3.8-1.5,5.3,0c6.2,6.2,19.4,8.4,28.9,8.4c9.5,0,22.7-2.2,28.9-8.4c1.5-1.5,3.8-1.5,5.3,0
			S287.9,289,286.4,290.4z M283.9,266.8c-7.9,0-14.4-6.5-14.4-14.4S276,238,283.9,238s14.4,6.5,14.4,14.4S291.8,266.8,283.9,266.8z"
			/>
	</g>
</g>
</svg>
